<svg width="40" height="40" viewBox="0 0 40 40" fill="none" xmlns="http://www.w3.org/2000/svg">
<path d="M30.3139 29.7228C27.7541 29.7228 25.6433 31.7887 25.6433 34.3934C25.6433 36.9533 27.7091 39.064 30.3139 39.064C32.8737 39.064 34.9845 36.9982 34.9845 34.3934C34.9396 31.8336 32.8737 29.7228 30.3139 29.7228Z" fill="#D1D4C9"/>
<path d="M38.5323 7.44778C38.4425 7.44778 38.3077 7.40287 38.173 7.40287H9.88007L9.43098 4.39394C9.16152 2.41792 7.45496 0.935913 5.43404 0.935913H1.79638C0.80837 0.935913 0 1.74428 0 2.73229C0 3.7203 0.80837 4.52867 1.79638 4.52867H5.43404C5.65859 4.52867 5.83822 4.7083 5.88313 4.93285L8.66752 23.8846C9.02679 26.2648 11.0926 28.0612 13.5177 28.0612H32.2001C34.5353 28.0612 36.5563 26.3996 37.0503 24.1092L39.9694 9.51361C40.149 8.57052 39.5203 7.62742 38.5323 7.44778Z" fill="#D1D4C9"/>
<path d="M18.862 34.1689C18.7722 31.6989 16.7063 29.7228 14.2363 29.7228C11.6316 29.8576 9.65556 32.0132 9.74538 34.5731C9.83519 37.0431 11.8561 39.0191 14.3261 39.0191H14.416C16.9758 38.8844 18.9967 36.7287 18.862 34.1689Z" fill="#D1D4C9"/>
</svg>
