<svg width="276" height="276" viewBox="0 0 276 276" fill="none" xmlns="http://www.w3.org/2000/svg">
<g clip-path="url(#clip0)">
<path d="M106.385 28.3421C99.0406 30.1692 94.5679 37.6045 96.395 44.9486C104.859 78.97 92.3719 99.8599 77.9121 124.048C62.5002 149.83 45.0314 179.052 56.528 225.263L64.799 258.508L78.0971 255.199L69.8261 221.954C49.8653 141.722 142.952 118.564 122.991 38.3318C121.164 30.9877 113.729 26.515 106.385 28.3421Z" fill="#ACD5DF"/>
<path d="M93.0866 31.6505C90.6637 32.2533 88.5562 33.4691 86.8812 35.088C84.643 34.4427 82.2114 34.3561 79.7885 34.9589C72.4444 36.7861 67.9717 44.2213 69.7988 51.5654C89.7596 131.797 36.5672 145.031 56.528 225.263C45.0314 179.052 66.3828 148.864 85.2207 122.23C102.894 97.2421 118.157 75.6616 109.693 41.6402C107.866 34.2961 100.431 29.8234 93.0866 31.6505Z" fill="#C4F3FF"/>
<path d="M53.1873 240.215C49.5153 241.128 47.2789 244.846 48.1925 248.518C48.4941 249.731 49.1059 250.782 49.9163 251.62C49.5929 252.739 49.5451 253.955 49.8467 255.167C50.1483 256.38 50.7601 257.431 51.5705 258.269C51.2471 259.388 51.1993 260.604 51.5009 261.816C51.8025 263.029 52.4143 264.08 53.2247 264.918C52.9013 266.037 52.8535 267.253 53.1551 268.465C54.0687 272.137 57.7863 274.374 61.4584 273.46L74.7565 270.152L66.4854 236.907L53.1873 240.215Z" fill="#87A1C1"/>
<path d="M73.1345 235.252L66.4854 236.907C62.8134 237.82 60.577 241.538 61.4906 245.21C61.7922 246.422 62.404 247.474 63.2144 248.311C62.891 249.431 62.8432 250.647 63.1448 251.859C63.4464 253.071 64.0582 254.123 64.8686 254.96C64.5452 256.08 64.4974 257.296 64.799 258.508C65.1006 259.72 65.7124 260.772 66.5228 261.609C66.1994 262.729 66.1516 263.945 66.4532 265.157C67.3668 268.829 71.0844 271.065 74.7565 270.152L81.4055 268.498L90.5681 248.567L73.1345 235.252Z" fill="#636DA4"/>
<path d="M73.1345 235.252L81.4055 268.497L113.205 259.354L73.1345 235.252Z" fill="#FFD06A"/>
<path d="M144.025 220.314L73.1345 235.252C77.5428 252.971 95.4831 263.763 113.205 259.354L161.884 245.357L144.025 220.314Z" fill="#FFE7B5"/>
<path d="M157.443 217.486L144.025 220.314L144.143 220.787C146.773 231.36 153.335 239.939 161.884 245.357L190.233 237.205L157.443 217.486Z" fill="#FFD06A"/>
<path d="M258.893 196.108L245.186 198.997L250.389 219.908L263.851 216.037C269.141 214.516 272.319 209.068 270.979 203.682C269.639 198.297 264.279 194.973 258.893 196.108Z" fill="#FFD06A"/>
<path d="M245.186 198.997L244.998 199.036L157.443 217.487C161.055 231.984 175.733 240.812 190.233 237.205L250.204 219.961L250.389 219.908C255.828 218.235 259.071 212.58 257.681 206.991C256.29 201.402 250.775 197.925 245.186 198.997Z" fill="#FFE7B5"/>
</g>
<defs>
<clipPath id="clip0">
<rect width="227.021" height="227.021" fill="white" transform="translate(0 54.8093) rotate(-13.9709)"/>
</clipPath>
</defs>
</svg>
