<svg width="40" height="40" viewBox="0 0 40 40" fill="none" xmlns="http://www.w3.org/2000/svg">
<g clip-path="url(#clip0)">
<path d="M38.921 17.3981C38.9201 17.3972 38.9192 17.3962 38.9183 17.3953L22.6015 1.0791C21.906 0.383301 20.9813 0 19.9977 0C19.0141 0 18.0895 0.382996 17.3937 1.0788L1.08537 17.3868C1.07987 17.3923 1.07438 17.3981 1.06889 17.4036C-0.359334 18.84 -0.356892 21.1707 1.07591 22.6035C1.73051 23.2584 2.59507 23.6377 3.51945 23.6774C3.55699 23.681 3.59483 23.6829 3.63297 23.6829H4.2833V35.6906C4.2833 38.0667 6.21659 40 8.5933 40H14.977C15.6239 40 16.1488 39.4754 16.1488 38.8281V29.4141C16.1488 28.3298 17.0308 27.4478 18.1151 27.4478H21.8803C22.9646 27.4478 23.8466 28.3298 23.8466 29.4141V38.8281C23.8466 39.4754 24.3712 40 25.0185 40H31.4021C33.7788 40 35.7121 38.0667 35.7121 35.6906V23.6829H36.3152C37.2984 23.6829 38.2231 23.2999 38.9192 22.6041C40.3535 21.1688 40.3542 18.8342 38.921 17.3981Z" fill="#D1D4C9"/>
</g>
<defs>
<clipPath id="clip0">
<rect width="40" height="40" fill="white"/>
</clipPath>
</defs>
</svg>
