<svg width="22" height="22" viewBox="0 0 22 22" fill="none" xmlns="http://www.w3.org/2000/svg">
<path d="M6.07435 5.00665C5.75707 4.68911 5.2423 4.68911 4.92502 5.00665C3.74699 6.18468 3.16798 7.82574 3.33625 9.50934C3.37823 9.92876 3.73156 10.2414 4.14419 10.2414C4.1713 10.2414 4.19863 10.24 4.22575 10.2373C4.67253 10.1926 4.99845 9.79405 4.95376 9.34757C4.83401 8.1511 5.2426 6.98772 6.07435 6.15593C6.39189 5.83869 6.39189 5.32389 6.07435 5.00665Z" fill="#4B5E6A"/>
<path d="M9.29311 0C4.16887 0 0 4.16887 0 9.29311C0 14.4173 4.16887 18.5862 9.29311 18.5862C14.4173 18.5862 18.5862 14.4173 18.5862 9.29311C18.5862 4.16887 14.4173 0 9.29311 0ZM9.29311 16.9606C5.06516 16.9606 1.62564 13.5211 1.62564 9.29311C1.62564 5.06516 5.06516 1.62564 9.29311 1.62564C13.5208 1.62564 16.9606 5.06516 16.9606 9.29311C16.9606 13.5211 13.5211 16.9606 9.29311 16.9606Z" fill="#4B5E6A"/>
<path d="M21.7618 20.6125L15.8554 14.7061C15.5378 14.3886 15.0236 14.3886 14.706 14.7061C14.3885 15.0234 14.3885 15.5382 14.706 15.8554L20.6125 21.7618C20.7713 21.9206 20.9791 22 21.1871 22C21.3952 22 21.603 21.9206 21.7618 21.7618C22.0793 21.4445 22.0793 20.9298 21.7618 20.6125Z" fill="#4B5E6A"/>
</svg>
