<svg width="276" height="276" viewBox="0 0 276 276" fill="none" xmlns="http://www.w3.org/2000/svg">
<g clip-path="url(#clip0)">
<path d="M127.837 209.881C123.691 192.081 110.737 181.466 110.737 181.466C110.737 181.466 103.808 196.712 107.954 214.513C110.43 225.141 116.17 233.743 120.394 238.949C122.521 241.571 126.726 240.591 127.476 237.299C128.964 230.763 130.313 220.51 127.837 209.881Z" fill="#416548"/>
<path d="M77.6901 178.682C95.4905 174.536 110.737 181.466 110.737 181.466C110.737 181.466 100.122 194.419 82.3215 198.565C71.6931 201.041 61.4402 199.693 54.9038 198.204C51.6117 197.454 50.6322 193.249 53.2542 191.122C58.4598 186.899 67.0614 181.158 77.6901 178.682Z" fill="#416548"/>
<path d="M77.5009 142.117C101.603 157.112 110.737 181.466 110.737 181.466C110.737 181.466 84.8539 184.033 60.7517 169.038C44.0315 158.636 33.5379 143.122 28.6781 134.594C27.0904 131.808 29.2286 128.371 32.4294 128.565C42.2269 129.156 60.7807 131.714 77.5009 142.117Z" fill="#95D6A4"/>
<path d="M110.738 181.466C110.738 181.466 101.603 157.112 77.5009 142.116C74.9181 140.509 72.2917 139.091 69.6605 137.837C77.659 158.181 89.6869 173.016 97.4634 181.184C105.464 181.988 110.738 181.466 110.738 181.466Z" fill="#72B07F"/>
<path d="M109.137 184.039L75.8675 163.341C74.4466 162.456 74.0113 160.588 74.8953 159.167C75.7794 157.746 77.6481 157.311 79.069 158.195L112.338 178.893C113.759 179.777 114.194 181.646 113.31 183.067C112.426 184.488 110.557 184.923 109.137 184.039Z" fill="#416548"/>
<path d="M116.85 108.88C125.957 147.977 110.737 181.466 110.737 181.466C110.737 181.466 82.286 158.15 73.1788 119.052C66.3521 89.7443 72.7641 61.7379 76.403 49.5503C77.3 46.546 81.1134 45.6578 83.2456 47.9564C91.8957 57.2812 110.023 79.5716 116.85 108.88Z" fill="#72B07F"/>
<path d="M116.9 109.102C104.079 134.259 101.701 158.976 101.503 172.303C106.856 178.282 110.738 181.466 110.738 181.466C110.738 181.466 125.898 148.103 116.9 109.102Z" fill="#95D6A4"/>
<path d="M113.689 180.778L103.367 136.466L107.878 129.214C108.762 127.793 108.327 125.924 106.906 125.04C105.485 124.156 103.617 124.592 102.733 126.012L101.423 128.118L99.3079 119.039L103.819 111.787C104.704 110.366 104.268 108.498 102.847 107.614C101.426 106.73 99.5577 107.165 98.6737 108.586L97.3636 110.692L93.7199 95.0488C93.3403 93.4192 91.7109 92.4055 90.0813 92.7851C88.4514 93.1645 87.4377 94.7939 87.8176 96.4237L91.4613 112.066L89.3555 110.756C87.9346 109.872 86.0659 110.308 85.1819 111.728C84.2978 113.149 84.7331 115.018 86.154 115.902L93.4056 120.414L95.5204 129.493L93.415 128.183C91.9941 127.299 90.1254 127.734 89.2413 129.155C88.3573 130.576 88.7926 132.445 90.2135 133.329L97.4651 137.84L107.787 182.153C107.977 182.968 108.479 183.629 109.137 184.038C109.796 184.448 110.611 184.606 111.425 184.417C113.055 184.037 114.069 182.408 113.689 180.778Z" fill="#416548"/>
<path d="M160.723 193.893C136.621 178.898 110.738 181.466 110.738 181.466C110.738 181.466 119.872 205.82 143.974 220.815C160.694 231.217 179.248 233.775 189.046 234.367C192.246 234.56 194.385 231.123 192.797 228.337C187.937 219.809 177.443 204.296 160.723 193.893Z" fill="#95D6A4"/>
<path d="M110.738 181.466C110.738 181.466 136.621 178.898 160.723 193.893C163.306 195.5 165.739 197.229 168.027 199.036C146.242 200.85 127.62 196.616 116.856 193.249C112.599 186.427 110.738 181.466 110.738 181.466Z" fill="#72B07F"/>
<path d="M173.151 143.907C134.053 153.014 110.738 181.465 110.738 181.465C110.738 181.465 144.226 196.685 183.324 187.578C212.632 180.751 234.922 162.624 244.247 153.974C246.546 151.842 245.657 148.028 242.653 147.131C230.466 143.492 202.459 137.08 173.151 143.907Z" fill="#72B07F"/>
<path d="M172.93 143.961C156.028 166.579 134.905 179.634 123.038 185.701C115.308 183.541 110.738 181.465 110.738 181.465C110.738 181.465 133.967 153.123 172.93 143.961Z" fill="#95D6A4"/>
<path d="M199.419 160.809C199.039 159.179 197.41 158.166 195.78 158.545L180.137 162.189L181.447 160.083C182.331 158.662 181.896 156.793 180.475 155.909C179.054 155.025 177.186 155.461 176.302 156.882L171.79 164.133L162.711 166.248L164.021 164.143C164.905 162.722 164.47 160.853 163.049 159.969C161.628 159.085 159.759 159.52 158.875 160.941L154.364 168.193L110.051 178.514C108.421 178.894 107.407 180.523 107.787 182.153C107.977 182.968 108.479 183.629 109.138 184.039C109.796 184.448 110.611 184.607 111.426 184.417L155.738 174.095L162.99 178.607C164.411 179.491 166.28 179.055 167.164 177.634C168.048 176.214 167.612 174.345 166.191 173.461L164.086 172.151L173.165 170.036L180.417 174.548C181.838 175.432 183.706 174.996 184.59 173.575C185.474 172.155 185.039 170.286 183.618 169.402L181.512 168.092L197.155 164.448C198.785 164.068 199.798 162.439 199.419 160.809Z" fill="#416548"/>
<path d="M142.406 204.737L109.137 184.039C107.716 183.155 107.28 181.286 108.164 179.865C109.048 178.444 110.917 178.009 112.338 178.893L145.607 199.591C147.028 200.475 147.463 202.344 146.579 203.765C145.695 205.186 143.827 205.621 142.406 204.737Z" fill="#416548"/>
<path d="M171.521 130.125C152.437 160.8 123.538 175.779 113.953 180.104C112.384 180.811 110.597 179.699 110.538 177.98C110.182 167.47 110.85 134.927 129.934 104.251C147.583 75.8838 174.758 59.1188 186.696 52.7441C189.446 51.2758 192.747 53.3293 192.645 56.445C192.201 69.9715 189.17 101.757 171.521 130.125Z" fill="#72B07F"/>
<path d="M190.546 77.4599C185.857 88.6468 179.525 100.397 170.977 111.38C151.722 136.119 126.972 149.589 111.753 156.055C109.713 171.119 110.737 181.466 110.737 181.466C110.737 181.466 148.358 167.356 171.521 130.125C182.738 112.095 188.05 92.6853 190.546 77.4599Z" fill="#72B07F"/>
<path d="M155.491 130.598C157.122 130.22 158.137 128.592 157.759 126.962C157.381 125.331 155.752 124.317 154.123 124.695L148.868 125.913L153.612 118.289L164.758 115.704C166.388 115.327 167.403 113.698 167.025 112.068C166.647 110.438 165.019 109.422 163.389 109.801L158.135 111.019L166.996 96.7753C167.88 95.3544 167.445 93.4857 166.024 92.6016C164.603 91.7176 162.735 92.1529 161.851 93.5738L152.989 107.817L151.76 102.566C151.379 100.936 149.748 99.9239 148.119 100.306C146.49 100.687 145.477 102.317 145.859 103.947L148.466 115.087L143.723 122.711L142.494 117.46C142.112 115.83 140.482 114.818 138.853 115.2C137.223 115.581 136.211 117.211 136.593 118.84L139.2 129.981L134.456 137.605L133.227 132.354C132.846 130.724 131.216 129.712 129.587 130.093C127.957 130.474 126.945 132.105 127.327 133.734L129.933 144.875L84.0163 218.679C83.1323 220.1 83.5676 221.969 84.9885 222.853C86.4094 223.737 88.2781 223.301 89.1621 221.88L135.079 148.076L146.225 145.492C147.855 145.114 148.871 143.486 148.493 141.856C148.114 140.225 146.486 139.21 144.856 139.588L139.602 140.807L144.345 133.183L155.491 130.598Z" fill="#416548"/>
</g>
<defs>
<clipPath id="clip0">
<rect width="200.189" height="200.189" fill="white" transform="translate(105.751) rotate(31.8878)"/>
</clipPath>
</defs>
</svg>
