<svg width="25" height="25" viewBox="0 0 25 25" fill="none" xmlns="http://www.w3.org/2000/svg">
<path d="M10.6855 20.3958C10.6855 22.1411 11.4921 23.7036 12.0343 24.5567C12.5769 23.6999 13.3858 22.1311 13.3858 20.3958C13.3858 20.1478 13.368 19.8915 13.3339 19.6308C12.7881 19.1398 12.3468 18.6628 12.0357 18.2999C11.7246 18.6628 11.2833 19.1398 10.7375 19.6308C10.7034 19.8916 10.6855 20.1479 10.6855 20.3958Z" fill="#D1D4C9"/>
<path d="M4.15286 17.098C3.3969 16.5339 2.75515 15.8181 2.21294 15.0407C1.24999 15.6973 0.47297 16.4933 0 17.0334C0.940301 18.105 3.08199 20.1906 5.50644 20.1906C7.02518 20.1906 8.43272 19.3724 9.50368 18.4976C9.25335 18.5175 8.9925 18.5293 8.723 18.5293C7.29624 18.5294 5.6387 18.2068 4.15286 17.098Z" fill="#D1D4C9"/>
<path d="M19.9186 17.098C18.433 18.2066 16.7751 18.5293 15.3485 18.5293C15.079 18.5293 14.8182 18.5175 14.5679 18.4976C15.6388 19.3724 17.0464 20.1906 18.5651 20.1906C20.9996 20.1906 23.1352 18.1066 24.0726 17.0346C23.5999 16.4947 22.8224 15.6979 21.8586 15.0407C21.3164 15.8181 20.6746 16.5339 19.9186 17.098Z" fill="#D1D4C9"/>
<path d="M5.03282 11.8619C4.56291 10.8099 4.27188 9.6926 4.10267 8.59182C2.89259 8.51194 1.80348 8.72382 1.13818 8.90126C1.5477 10.4895 2.64278 13.867 4.85784 15.5198C6.28342 16.5836 7.94768 16.774 9.29252 16.6846C7.83211 15.759 6.09345 14.2363 5.03282 11.8619Z" fill="#D1D4C9"/>
<path d="M7.9086 7.85848C7.9086 6.60096 8.09825 5.40534 8.39097 4.30856C7.32978 3.41285 6.24862 2.86644 5.57881 2.58014C5.31203 4.25195 4.93541 7.99917 6.25388 10.9507C7.10907 12.8652 8.54499 14.1484 9.7908 14.9607C8.85947 13.1812 7.9086 10.6751 7.9086 7.85848Z" fill="#D1D4C9"/>
<path d="M19.2137 15.5198C21.4368 13.8609 22.5272 10.4903 22.9344 8.90286C22.2675 8.72566 21.1752 8.51311 19.9688 8.59202C19.7996 9.69269 19.5086 10.81 19.0387 11.8619C17.9795 14.2331 16.2441 15.755 14.7849 16.6809C16.131 16.7691 17.7945 16.5788 19.2137 15.5198Z" fill="#D1D4C9"/>
<path d="M17.8177 10.9508C19.1413 7.98775 18.7626 4.24842 18.4941 2.57959C17.8246 2.86559 16.7426 3.41218 15.6807 4.30856C15.9734 5.40535 16.1631 6.60096 16.1631 7.85848C16.1631 10.6752 15.2122 13.1813 14.2808 14.9609C15.5265 14.1486 16.9625 12.8653 17.8177 10.9508Z" fill="#D1D4C9"/>
<path d="M9.3186 7.85844C9.3186 11.3492 11.1429 14.4213 12.0357 15.7155C12.9285 14.4213 14.7528 11.3492 14.7528 7.85844C14.7528 4.35414 12.9294 1.29002 12.0366 0C11.1445 1.29293 9.3186 4.36629 9.3186 7.85844Z" fill="#D1D4C9"/>
</svg>
