<svg width="20" height="20" viewBox="0 0 20 20" fill="none" xmlns="http://www.w3.org/2000/svg">
<g clip-path="url(#clip0)">
<path d="M10.0007 1.56616C5.34252 1.56616 1.56689 5.34179 1.56689 10C1.56689 13.3563 3.53253 16.2457 6.37068 17.6032L6.63465 12.5024C6.63465 12.5024 6.13812 12.3395 6.02943 12.2864C4.97627 11.8225 4.21119 10.4566 4.21119 8.68376C4.21119 6.74928 5.71145 5.08302 7.16191 5.06925C7.16375 5.06925 7.16375 5.06925 7.16496 5.06925C7.16559 5.06925 7.1668 5.06925 7.16737 5.06925C8.61815 5.08296 10.1185 6.74922 10.1185 8.68376C10.1185 10.4566 9.35244 11.8219 8.30143 12.2864C8.29318 12.29 7.69138 12.5086 7.69138 12.5086L7.98619 18.18C8.63312 18.3392 9.30574 18.4326 10.0018 18.4326C10.9406 18.4326 11.8396 18.2727 12.6831 17.9901L12.9444 12.9358C12.2559 12.7844 11.6687 12.3461 11.3007 11.7963C10.8448 11.1133 11.6517 5.06867 11.6517 5.06867H12.1766V10.741H12.6978V5.06931H13.2679V10.7422H13.7867V5.06931H14.3782V10.7422H14.8988V5.06931H15.3016C15.3016 5.06931 16.1085 11.1139 15.652 11.7969C15.2875 12.3413 14.7059 12.7784 14.026 12.9334C14.0138 12.9377 14.0028 12.9419 14.0028 12.9419L14.2298 17.2895C16.742 15.8289 18.4352 13.1153 18.4352 10.0001C18.4339 5.34184 14.6583 1.56616 10.0007 1.56616Z" fill="#D1D4C9"/>
<path d="M5.44543 7.82619C5.47563 7.70321 5.51624 7.58633 5.51808 7.58423C5.53121 7.53816 5.50679 7.49114 5.45672 7.46125C5.40913 7.43561 5.35113 7.44875 5.32429 7.48993C5.32429 7.48993 5.26661 7.58181 5.18298 7.71761C5.11495 7.83449 5.01425 8.02124 4.94553 8.2538C4.88602 8.45762 4.81494 8.72864 4.7829 9.03195C4.76918 9.19128 4.76609 9.33501 4.77097 9.48299C4.7829 9.65173 4.80848 9.79608 4.85733 9.96119C5.02302 10.4321 5.15062 10.8881 5.61111 11.3378C5.75668 11.4874 5.90624 11.5893 6.01424 11.6644L6.05238 11.6912C6.0756 11.7065 6.09787 11.7206 6.11983 11.7334C6.2105 11.781 6.27118 11.7981 6.28221 11.8005C6.32733 11.8127 6.37377 11.7907 6.39295 11.7541C6.41096 11.7157 6.39783 11.6674 6.36032 11.637C6.36032 11.637 6.30779 11.5912 6.24039 11.5057C6.19432 11.4538 6.14426 11.3788 6.086 11.294C6.04482 11.2341 5.99628 11.1664 5.9511 11.1005C5.72679 10.758 5.59746 10.2802 5.41858 9.79062C5.38349 9.6844 5.35481 9.54677 5.34409 9.42988C5.32981 9.29498 5.32308 9.16502 5.32308 9.04446C5.31788 8.7643 5.33038 8.52381 5.35481 8.32882C5.38286 8.10881 5.40482 7.9437 5.44543 7.82619Z" fill="#D1D4C9"/>
<path d="M10.0006 0C4.48701 0 0 4.48607 0 9.99997C0 15.5127 4.48701 20 10.0006 20C15.5139 20 20 15.5127 20 9.99997C20 4.48607 15.5139 0 10.0006 0ZM10.0006 19.2542C4.89744 19.2542 0.745533 15.1026 0.745533 9.99997C0.745533 4.89681 4.89744 0.744902 10.0006 0.744902C15.1032 0.744902 19.2554 4.89681 19.2554 9.99997C19.2554 15.1026 15.1031 19.2542 10.0006 19.2542Z" fill="#D1D4C9"/>
</g>
<defs>
<clipPath id="clip0">
<rect width="20" height="20" fill="white"/>
</clipPath>
</defs>
</svg>
