<svg width="22" height="30" viewBox="0 0 22 30" fill="none" xmlns="http://www.w3.org/2000/svg">
<path d="M10.1702 12.6302H2.20483L1.51733 13.5305H10.8577L10.1702 12.6302Z" fill="#D1D4C9"/>
<path d="M4.125 9.92932H8.25V11.7299H4.125V9.92932Z" fill="#D1D4C9"/>
<path d="M3.09375 9.02899H9.28125C9.47066 9.02899 9.625 8.82687 9.625 8.57884V7.67854C9.625 7.43051 9.47066 7.22839 9.28125 7.22839H3.09375C2.90434 7.22839 2.75 7.43051 2.75 7.67854V8.57884C2.75 8.82687 2.90434 9.02899 3.09375 9.02899Z" fill="#D1D4C9"/>
<path d="M7.5625 3.62726C7.5625 2.63423 6.94581 1.82666 6.1875 1.82666C5.42919 1.82666 4.8125 2.63423 4.8125 3.62726V6.32815H7.5625V3.62726Z" fill="#D1D4C9"/>
<path d="M9.96875 18.032H2.40625V24.3341H9.96875V18.032ZM5.5 22.9836C4.36081 22.9836 3.4375 21.7745 3.4375 20.2827H4.125C5.26419 20.2827 6.1875 21.4918 6.1875 22.9836H5.5ZM6.875 22.0833H6.1875C6.1875 20.5915 7.11081 19.3824 8.25 19.3824H8.9375C8.9375 20.8742 8.01419 22.0833 6.875 22.0833Z" fill="#D1D4C9"/>
<path d="M9.96877 16.2314H3.57983L2.89233 17.1317H9.96877V16.2314Z" fill="#D1D4C9"/>
<path d="M13.629 22.9553C13.0965 22.6937 12.551 22.4268 12.0312 22.2026V26.1347H15.125C16.622 26.1347 17.986 25.3888 19.0211 24.172C18.5082 24.2855 17.975 24.3341 17.5313 24.3341C16.4374 24.3341 15.0098 23.6328 13.629 22.9553Z" fill="#D1D4C9"/>
<path d="M2.40625 25.2344V26.1347H8.79519L9.48269 25.2344H2.40625Z" fill="#D1D4C9"/>
<path d="M1.03125 26.5848C1.03125 27.3293 1.49394 27.9353 2.0625 27.9353H10.3125C10.8811 27.9353 11.3438 27.3293 11.3438 26.5848V14.4308H1.03125V26.5848ZM1.71875 17.3955L3.29519 15.3311H10.6562V24.9706L9.07981 27.035H1.71875V17.3955Z" fill="#D1D4C9"/>
<path d="M12.0312 18.9324V21.2583C12.629 21.505 13.2577 21.8111 13.8703 22.1118C13.9064 22.1293 13.9425 22.1469 13.9786 22.1649C15.4141 21.2178 16.6103 20.733 17.5313 20.733C19.0135 20.733 19.9839 20.963 20.5061 21.4447C20.758 20.6632 20.9193 19.8201 20.9588 18.9324H12.0312Z" fill="#D1D4C9"/>
<path d="M14.8789 22.5992C15.8624 23.0593 16.808 23.4338 17.5313 23.4338C18.4381 23.4338 19.3387 23.2411 19.8705 22.9404C19.9881 22.7266 20.0953 22.5029 20.196 22.2733C20.0163 22.0253 19.4315 21.6332 17.5313 21.6332C16.8527 21.6332 15.9435 21.9681 14.8789 22.5992Z" fill="#D1D4C9"/>
<path d="M16.4588 14.4308H16.5412C18.414 14.4308 19.9375 12.4358 19.9375 9.98336C19.9375 9.14878 19.7588 8.33401 19.4212 7.62638L16.7344 1.99682C16.6836 1.89013 16.5959 1.82666 16.5 1.82666C16.4041 1.82666 16.3164 1.89013 16.2656 1.99682L13.5788 7.62638C13.2412 8.33401 13.0625 9.14923 13.0625 9.98336C13.0625 12.4358 14.586 14.4308 16.4588 14.4308ZM18.5216 7.44002L18.8382 8.10354C18.8805 8.19176 18.9193 8.28224 18.9551 8.37452L18.3425 8.78326C18.3157 8.71394 18.2865 8.64641 18.2548 8.58024L17.9382 7.91672L18.5216 7.44002ZM16.5 12.6302H16.5412C17.6557 12.6302 18.5625 11.4427 18.5625 9.98336C18.5625 9.83886 18.5536 9.69391 18.5353 9.55256L19.2136 9.40537C19.238 9.59533 19.25 9.78979 19.25 9.98336C19.25 11.9393 18.0348 13.5305 16.5412 13.5305H16.5V12.6302Z" fill="#D1D4C9"/>
</svg>
