<svg width="22" height="22" viewBox="0 0 22 22" fill="none" xmlns="http://www.w3.org/2000/svg">
<path d="M20.9199 5.46788L15.4574 3.08221C15.173 2.95797 14.8414 3.08695 14.7167 3.37013L13.786 5.48395C13.7746 5.50981 13.7716 5.53844 13.7774 5.56605L13.9374 6.32755C13.9457 6.367 13.9712 6.40074 14.007 6.41958L14.4386 6.64674C14.4803 6.66865 14.5076 6.71057 14.5108 6.75746L14.5582 7.46623C14.5541 7.47032 14.5504 7.47412 14.5463 7.47829C12.8383 9.25533 12.043 11.4556 11.4082 13.5941C11.403 13.6117 11.3995 13.631 11.395 13.6494H3.9394C3.43317 13.6494 3.02271 14.0582 3.02271 14.5624C3.02271 16.8073 4.1039 18.8075 5.7797 20.0849H5.5943C5.08807 20.0849 4.6776 20.4937 4.6776 20.9979C4.6776 21.5021 5.08807 21.9109 5.5943 21.9109H14.611C15.1173 21.9109 15.5277 21.5021 15.5277 20.9979C15.5277 20.4937 15.1173 20.0849 14.611 20.0849H14.4256C16.1014 18.8075 17.1826 16.8072 17.1826 14.5624C17.1826 14.0582 16.7721 13.6494 16.2659 13.6494H13.8458C13.988 11.9261 14.1673 10.6016 15.0345 8.74617L18.7601 10.3733C19.0445 10.4974 19.3761 10.3685 19.5008 10.0853L21.209 6.20573C21.3337 5.92233 21.2043 5.59205 20.9199 5.46788Z" fill="#D1D4C9"/>
<path d="M7.34201 10.9698C7.53686 11.6188 8.22314 11.9875 8.87473 11.7935C9.52632 11.5993 9.89659 10.9159 9.70174 10.267C9.12026 8.33012 8.15428 5.80334 6.70215 4.37551L6.74579 3.72254C6.74894 3.67565 6.77622 3.63373 6.81795 3.61182L7.2496 3.38467C7.28539 3.36582 7.31091 3.33208 7.3192 3.29264L7.47915 2.53113C7.48494 2.50353 7.48193 2.47482 7.47057 2.44904L6.53986 0.335225C6.41519 0.0519802 6.08356 -0.0769333 5.79917 0.0473057L0.336589 2.4329C0.0521917 2.55706 -0.0772463 2.88735 0.0474982 3.17059L1.75571 7.05026C1.88038 7.33351 2.21201 7.46242 2.49641 7.33818L6.22569 5.70949C7.30248 7.99779 7.19827 10.4912 7.34201 10.9698Z" fill="#D1D4C9"/>
</svg>
