<svg width="276" height="276" viewBox="0 0 276 276" fill="none" xmlns="http://www.w3.org/2000/svg">
<g opacity="0.5" clip-path="url(#clip0)">
<path d="M127.837 209.882C123.691 192.081 110.738 181.466 110.738 181.466C110.738 181.466 103.808 196.712 107.954 214.513C110.43 225.141 116.17 233.743 120.394 238.949C122.521 241.571 126.726 240.591 127.476 237.299C128.965 230.763 130.313 220.51 127.837 209.882Z" fill="#416548"/>
<path d="M77.6902 178.682C95.4906 174.536 110.737 181.466 110.737 181.466C110.737 181.466 100.122 194.419 82.3216 198.566C71.6931 201.041 61.4402 199.693 54.9038 198.204C51.6117 197.454 50.6323 193.25 53.2543 191.122C58.4598 186.899 67.0615 181.158 77.6902 178.682Z" fill="#416548"/>
<path d="M77.5009 142.117C101.603 157.112 110.738 181.466 110.738 181.466C110.738 181.466 84.854 184.033 60.7517 169.038C44.0316 158.636 33.5379 143.122 28.6782 134.594C27.0905 131.808 29.2286 128.371 32.4295 128.565C42.2269 129.156 60.7808 131.714 77.5009 142.117Z" fill="#95D6A4"/>
<path d="M110.738 181.466C110.738 181.466 101.603 157.112 77.5009 142.116C74.9181 140.51 72.2917 139.091 69.6604 137.837C77.659 158.181 89.6869 173.016 97.4634 181.184C105.464 181.988 110.738 181.466 110.738 181.466Z" fill="#72B07F"/>
<path d="M109.137 184.039L75.8675 163.341C74.4466 162.456 74.0114 160.588 74.8954 159.167C75.7794 157.746 77.6481 157.311 79.069 158.195L112.338 178.893C113.759 179.777 114.194 181.646 113.31 183.067C112.426 184.488 110.557 184.923 109.137 184.039Z" fill="#416548"/>
<path d="M116.85 108.88C125.957 147.977 110.737 181.466 110.737 181.466C110.737 181.466 82.2859 158.15 73.1788 119.052C66.352 89.7443 72.7641 61.7379 76.403 49.5503C77.3 46.5461 81.1133 45.6578 83.2456 47.9565C91.8957 57.2813 110.023 79.5716 116.85 108.88Z" fill="#72B07F"/>
<path d="M116.9 109.102C104.079 134.259 101.701 158.976 101.503 172.303C106.856 178.283 110.737 181.466 110.737 181.466C110.737 181.466 125.898 148.104 116.9 109.102Z" fill="#95D6A4"/>
<path d="M113.689 180.778L103.367 136.466L107.878 129.214C108.762 127.793 108.327 125.924 106.906 125.04C105.485 124.156 103.617 124.592 102.733 126.013L101.423 128.118L99.3079 119.039L103.819 111.787C104.704 110.366 104.268 108.498 102.847 107.614C101.426 106.73 99.5577 107.165 98.6737 108.586L97.3636 110.692L93.7199 95.049C93.3403 93.4194 91.7109 92.4056 90.0813 92.7852C88.4514 93.1646 87.4377 94.794 87.8176 96.4238L91.4613 112.067L89.3555 110.756C87.9346 109.872 86.0659 110.308 85.1819 111.729C84.2978 113.149 84.7331 115.018 86.154 115.902L93.4056 120.414L95.5204 129.493L93.415 128.183C91.9941 127.299 90.1254 127.734 89.2413 129.155C88.3573 130.576 88.7926 132.445 90.2135 133.329L97.4651 137.84L107.787 182.153C107.977 182.968 108.479 183.629 109.137 184.038C109.796 184.448 110.611 184.606 111.425 184.417C113.055 184.037 114.069 182.408 113.689 180.778Z" fill="#416548"/>
<path d="M160.723 193.893C136.621 178.898 110.738 181.466 110.738 181.466C110.738 181.466 119.872 205.82 143.974 220.815C160.694 231.217 179.248 233.775 189.046 234.367C192.247 234.56 194.385 231.123 192.797 228.337C187.937 219.809 177.444 204.296 160.723 193.893Z" fill="#95D6A4"/>
<path d="M110.738 181.466C110.738 181.466 136.621 178.898 160.723 193.893C163.306 195.5 165.739 197.229 168.027 199.036C146.242 200.85 127.62 196.616 116.856 193.249C112.599 186.427 110.738 181.466 110.738 181.466Z" fill="#72B07F"/>
<path d="M173.151 143.908C134.053 153.014 110.737 181.466 110.737 181.466C110.737 181.466 144.226 196.686 183.324 187.578C212.631 180.752 234.922 162.624 244.247 153.974C246.546 151.842 245.657 148.028 242.653 147.131C230.466 143.493 202.459 137.08 173.151 143.908Z" fill="#72B07F"/>
<path d="M172.93 143.961C156.028 166.579 134.905 179.634 123.038 185.701C115.308 183.541 110.738 181.466 110.738 181.466C110.738 181.466 133.967 153.123 172.93 143.961Z" fill="#95D6A4"/>
<path d="M199.419 160.809C199.039 159.179 197.41 158.166 195.78 158.545L180.137 162.189L181.447 160.083C182.331 158.662 181.896 156.794 180.475 155.91C179.054 155.026 177.186 155.461 176.302 156.882L171.79 164.133L162.711 166.248L164.021 164.143C164.905 162.722 164.47 160.853 163.049 159.969C161.628 159.085 159.759 159.52 158.875 160.941L154.363 168.193L110.051 178.515C108.421 178.894 107.407 180.523 107.787 182.153C107.977 182.968 108.479 183.629 109.138 184.039C109.796 184.448 110.611 184.607 111.426 184.417L155.738 174.095L162.99 178.607C164.411 179.491 166.279 179.055 167.163 177.634C168.047 176.214 167.612 174.345 166.191 173.461L164.086 172.151L173.165 170.036L180.417 174.548C181.837 175.432 183.706 174.996 184.59 173.576C185.474 172.155 185.039 170.286 183.618 169.402L181.512 168.092L197.155 164.448C198.785 164.068 199.798 162.439 199.419 160.809Z" fill="#416548"/>
<path d="M142.406 204.737L109.137 184.039C107.716 183.155 107.28 181.286 108.164 179.865C109.048 178.444 110.917 178.009 112.338 178.893L145.607 199.591C147.028 200.475 147.463 202.344 146.579 203.765C145.695 205.186 143.827 205.621 142.406 204.737Z" fill="#416548"/>
<path d="M171.521 130.125C152.436 160.8 123.538 175.779 113.953 180.104C112.384 180.812 110.597 179.7 110.538 177.98C110.182 167.47 110.85 134.927 129.934 104.252C147.583 75.8839 174.757 59.1189 186.696 52.7442C189.446 51.2759 192.747 53.3294 192.644 56.4451C192.201 69.9717 189.17 101.757 171.521 130.125Z" fill="#72B07F"/>
<path d="M190.546 77.46C185.857 88.6469 179.525 100.398 170.977 111.38C151.722 136.119 126.972 149.589 111.753 156.055C109.713 171.119 110.737 181.466 110.737 181.466C110.737 181.466 148.358 167.356 171.521 130.125C182.738 112.095 188.05 92.6855 190.546 77.46Z" fill="#72B07F"/>
<path d="M155.491 130.598C157.122 130.221 158.137 128.592 157.759 126.962C157.381 125.332 155.752 124.317 154.122 124.695L148.868 125.913L153.612 118.289L164.758 115.705C166.388 115.327 167.403 113.698 167.025 112.068C166.647 110.438 165.019 109.423 163.389 109.801L158.135 111.019L166.996 96.7754C167.88 95.3545 167.445 93.4858 166.024 92.6018C164.603 91.7178 162.734 92.1531 161.85 93.574L152.989 107.818L151.76 102.566C151.379 100.936 149.748 99.9241 148.119 100.306C146.489 100.687 145.477 102.317 145.859 103.947L148.466 115.087L143.723 122.711L142.494 117.46C142.112 115.83 140.482 114.818 138.853 115.2C137.223 115.581 136.211 117.211 136.593 118.841L139.2 129.981L134.456 137.605L133.227 132.354C132.846 130.724 131.216 129.712 129.587 130.094C127.957 130.475 126.945 132.105 127.326 133.735L129.933 144.875L84.0163 218.679C83.1323 220.1 83.5675 221.969 84.9884 222.853C86.4094 223.737 88.2781 223.301 89.1621 221.881L135.079 148.077L146.225 145.492C147.855 145.115 148.871 143.486 148.493 141.856C148.114 140.226 146.486 139.211 144.856 139.589L139.602 140.807L144.345 133.183L155.491 130.598Z" fill="#416548"/>
</g>
<defs>
<clipPath id="clip0">
<rect width="200.189" height="200.189" fill="white" transform="translate(105.751) rotate(31.8878)"/>
</clipPath>
</defs>
</svg>
