<svg width="1157" height="801" viewBox="0 0 1157 801" fill="none" xmlns="http://www.w3.org/2000/svg">
<path d="M538.674 644.7C538.674 644.7 527.939 613.692 512.077 599.06C496.221 584.434 493.615 598.174 484.804 589.128C475.987 580.075 476.269 575.72 475.128 576.602C473.987 577.485 471.886 571.522 460.183 574.369C448.479 577.216 437.116 566.343 438.543 565.24C439.971 564.136 442.662 563.785 448.853 565.899C455.039 568.005 463.173 563.782 463.173 563.782C463.173 563.782 456.767 560.8 449.823 560.663C442.874 560.519 443.913 552.127 454.095 553.211C464.282 554.302 477.137 556.781 483.97 565.626C490.809 574.479 492.264 577.838 499.137 576.997C506.013 576.163 515.095 590.869 515.095 590.869C515.095 590.869 517.665 589.218 522.893 593.459C528.116 597.694 544.892 628.852 538.674 644.7Z" fill="#666D6D"/>
<path d="M395.052 539.909C396.597 540.434 404.217 543.511 400.393 550.954C396.564 558.389 384.696 558.958 384.696 558.958C384.696 558.958 394.13 576.482 379.147 583.934C379.147 583.934 376.064 593.221 379.154 594.271C382.25 595.327 377.893 591.457 387.411 589.615C396.928 587.774 403.1 599.895 403.1 599.895C403.1 599.895 399.512 579.907 417.883 583.627C417.883 583.627 422.32 563.997 413.025 548.423C403.729 532.849 390.95 529.289 390.95 529.289C390.95 529.289 393.991 525.554 401.827 531.567C409.662 537.579 412.324 538.96 412.324 538.96C412.324 538.96 413.009 533.945 398.653 521.262C384.291 508.573 382.024 510.506 377.225 508.867C372.432 507.235 370.654 501.539 370.654 501.539C357.506 496.859 334.455 492.048 345.488 487.55C352.078 484.87 369.349 496.163 369.077 492.417C368.799 488.664 345.41 478.302 339.56 482.827C333.711 487.351 325.088 478.845 325.088 478.845C325.088 478.845 320.207 476.067 314.785 480.26C309.364 484.453 305.601 476.337 312.449 471.039C319.297 465.743 344.617 467.54 353.186 473.323C361.756 479.104 365.87 471.448 374.724 477.01C383.58 482.571 392.277 496.191 393.205 496.507C394.133 496.824 394.705 498.449 408.757 513.099C422.809 527.748 425.779 545.46 425.995 548.396C426.212 551.331 440.706 586.322 433.934 598.799C427.162 611.276 422.761 608.824 422.761 608.824C422.761 608.824 422.392 620.148 414.518 623.822C406.643 627.495 399.12 623.658 399.12 623.658C399.12 623.658 392.65 621.772 384.945 627.731C377.241 633.689 360.812 623.633 360.333 617.113C360.333 617.113 351.354 609.916 352.49 600.764C353.62 591.605 359.62 591.112 359.62 591.112C359.62 591.112 351.994 577.698 353.983 565.818C355.968 553.929 369.698 554 369.698 554C369.698 554 371.262 544.517 378.965 538.558C386.67 532.599 391.554 539.512 391.554 539.512L395.052 539.909Z" fill="#666D6D"/>
<path d="M298.611 481.735C298.611 481.735 307.393 482.188 307.68 486.099C307.971 490.017 299.763 491.192 283.369 495.936C266.983 500.685 265.081 505.598 258.094 513.074C251.106 520.551 247.385 513.08 247.385 513.08C247.385 513.08 239.615 524.264 243.002 535.434C246.389 546.605 238.162 559.704 231.816 557.537C225.475 555.377 222.605 557.415 223.162 564.921C223.718 572.428 227.388 585.439 218.423 586.52C209.452 587.594 213.285 617.043 225.302 618.437C237.317 619.831 225.507 611.032 237.309 607.428C249.106 603.818 249.5 619.375 249.5 619.375C249.5 619.375 257.722 606.12 261.804 593.997C265.885 581.873 276.122 585.684 276.122 585.684C276.122 585.684 276.525 570.892 272.878 562.323C269.238 553.76 277.465 561.017 277.384 559.88C277.298 558.735 269.516 545.269 263.227 535.653C256.938 526.037 275.423 523.117 282.798 547.416C290.172 571.715 299.669 606.43 271.706 628.058C271.706 628.058 256.848 643.343 244.883 644.672C232.914 645.994 235.05 638.137 235.05 638.137C235.05 638.137 210.14 639.821 198.416 621.989C186.698 604.163 194.756 594.828 194.756 594.828C194.756 594.828 201.295 591.492 194.12 580.138C186.951 568.791 178.401 561.263 199.448 550.158C220.498 539.051 221.736 540.063 216.186 536.125C210.642 532.193 213.656 523.997 222.404 515.85C231.152 507.702 236.294 507.869 236.294 507.869C236.294 507.869 246.397 499.704 252.934 488.104C259.465 476.497 298.611 481.735 298.611 481.735Z" fill="#666D6D"/>
<path d="M223.049 507.308C223.049 507.308 207.053 517.399 207.426 522.487C207.804 527.581 189.106 508.803 197.57 505.008C206.039 501.22 208.857 501.917 208.857 501.917C208.857 501.917 200.999 498.825 212.347 496.993C223.69 495.155 223.049 507.308 223.049 507.308Z" fill="#666D6D"/>
<path d="M248.533 216.904C248.533 216.904 232.536 226.996 232.909 232.083C233.288 237.178 214.589 218.4 223.053 214.604C231.522 210.817 234.34 211.514 234.34 211.514C234.34 211.514 226.482 208.422 237.831 206.59C249.173 204.752 248.533 216.904 248.533 216.904Z" fill="#666D6D"/>
<path d="M194.894 519.836C194.894 519.836 205.489 519.981 198.926 525.057C192.363 530.133 194.894 519.836 194.894 519.836Z" fill="#666D6D"/>
<path d="M228.828 243.712C228.828 243.712 239.423 243.857 232.861 248.933C226.297 254.009 228.828 243.712 228.828 243.712Z" fill="#666D6D"/>
<path d="M186.444 495.323C186.444 495.323 188.342 510.442 181.062 507.959C173.782 505.476 176.074 491.79 186.444 495.323Z" fill="#666D6D"/>
<path d="M213.465 204.977C213.465 204.977 215.363 220.095 208.083 217.613C200.803 215.13 203.095 201.443 213.465 204.977Z" fill="#666D6D"/>
<path d="M351.592 589.331C351.592 589.331 351.921 602.677 346.536 600.84C341.15 599.003 343.563 587.56 351.592 589.331Z" fill="#666D6D"/>
<path d="M444.308 545.916C444.308 545.916 463.359 552.179 463.079 548.383C462.798 544.586 443.967 541.346 444.308 545.916Z" fill="#666D6D"/>
<path d="M199.573 558.34C197.299 566.608 209.053 570.613 206.2 572.82C203.346 575.027 200.262 582.246 203.263 586.13C206.263 590.014 202.882 594.676 203.538 603.599C204.196 612.523 205.004 617.889 214.19 623.88C223.382 629.877 233.568 628.902 233.568 628.902C233.568 628.902 243.846 631.586 241.85 633.13C239.852 634.675 237.375 639.795 241.13 642.23C242.781 643.302 247.843 642.894 252.995 642.091C250.279 643.416 247.517 644.383 244.889 644.673C232.919 645.995 235.055 638.138 235.055 638.138C235.055 638.138 210.14 639.816 198.422 621.991C186.698 604.158 194.756 594.823 194.756 594.823C194.756 594.823 201.295 591.485 194.124 580.136C186.952 568.788 178.407 561.266 199.455 550.158C206.026 546.683 210.668 544.397 213.778 542.778C208.533 546.689 201.026 553.057 199.573 558.34Z" fill="#E6E6E6"/>
<path d="M371.299 610.717C371.299 610.717 374.394 620.328 380.273 622.334C386.153 624.339 388.17 614.854 388.17 614.854C388.17 614.854 403.876 619.253 409.868 614.619C415.859 609.984 415.088 599.543 415.088 599.543C422.993 602.241 428.538 579.967 431.268 565.277C434.683 576.968 437.834 591.616 433.936 598.802C427.164 611.278 422.763 608.826 422.763 608.826C422.763 608.826 422.394 620.15 414.52 623.823C406.646 627.497 399.124 623.659 399.124 623.659C399.124 623.659 392.653 621.773 384.949 627.732C383.245 629.05 381.114 629.586 378.823 629.548C377.875 628.224 376.728 626.594 375.994 625.644C367.324 614.421 371.299 610.717 371.299 610.717Z" fill="#E6E6E6"/>
<g filter="url(#filter0_d)">
<g filter="url(#filter1_i)">
<path fill-rule="evenodd" clip-rule="evenodd" d="M258.42 153.081C257.994 425.658 393.317 646.883 560.673 647.202C728.029 647.52 864.042 426.809 864.469 154.233C864.754 -28.0976 804.011 -3.99142 713.667 31.8617C668.951 49.6072 616.984 70.2303 561.577 70.1252C506.169 70.0201 454.267 49.1993 409.606 31.2837C319.374 -4.91299 258.705 -29.2506 258.42 153.081ZM477.084 231.206C477.084 261.608 452.454 286.254 422.07 286.253C391.686 286.253 367.055 261.607 367.055 231.205C367.054 200.802 391.685 176.157 422.069 176.157C452.452 176.158 477.084 200.804 477.084 231.206ZM723.327 283.976C753.711 283.976 778.342 259.331 778.341 228.928C778.341 198.526 753.709 173.88 723.326 173.879C692.942 173.879 668.311 198.524 668.312 228.927C668.312 259.329 692.944 283.975 723.327 283.976Z" fill="#00615C"/>
</g>
<path d="M436.208 191.888C407.177 173.182 373.616 165.2 343.463 167.548C370.589 146.24 417.267 146.784 454.129 170.538C490.99 194.292 505.492 233.17 490.362 262.21C483.934 236.289 465.238 210.596 436.208 191.888Z" fill="#0B2322"/>
<path d="M713.965 196.773C683.801 213.547 660.748 239.206 648.284 266.634C642.867 233.139 665.783 192.599 704.085 171.302C742.388 150.006 783.043 155.198 800.926 181.764C775.379 175.471 744.129 180.002 713.965 196.773Z" fill="#0B2322"/>
<path d="M724.692 161.58C700.155 165.157 679.081 178.089 665.234 195.847C667.432 167.492 691.101 142.697 722.257 138.157C753.413 133.617 781.453 150.877 789.395 177.755C772.324 164.503 749.227 158.005 724.692 161.58Z" fill="#0B2322"/>
<path d="M426.586 152.48C451.126 156.017 472.215 168.918 486.081 186.657C483.851 158.3 460.154 133.538 428.994 129.048C397.834 124.557 369.814 141.866 361.903 168.763C378.959 155.48 402.047 148.944 426.586 152.48Z" fill="#0B2322"/>
</g>
<g filter="url(#filter2_i)">
<path fill-rule="evenodd" clip-rule="evenodd" d="M529.052 356.712C499.335 266.512 486.978 132.019 568.872 7.59302C600.193 79.5259 641.007 232.996 600.295 357.57C598.775 356.71 597.237 355.926 595.686 355.216C595.688 355.143 595.691 355.067 595.694 354.99C595.696 354.951 595.697 354.911 595.699 354.871C595.791 352.921 596.116 350.598 596.394 349.068L597.042 345.502L594.213 343.238C589.441 339.418 584.354 336.953 579.237 335.494V242.036L582.935 244.897V234.558L585.197 230.885L582.935 229.47V225.173L580.108 223.385L578.118 221.234L577.871 176.49L579.853 178.11V167.012L582.001 163.412L579.853 162.026V159.06L577.152 157.256C576.82 157.035 576.488 156.825 576.156 156.627V156.252L578.005 157.762V146.699L580.403 142.942L578.005 141.495V139.378L575.303 137.575C574.766 137.216 574.228 136.895 573.691 136.608V109.311L574.924 110.41V98.3839L577.509 94.5166L574.924 93.0273V92.4407L572.767 90.8699V83.3924L570.488 81.5686C568.766 80.1902 566.52 79.3883 564.101 79.799C561.934 80.1669 560.325 81.3988 559.375 82.6672L558.16 84.2871V90.8846L556.004 92.5828V93.2093L553.379 94.8848L556.004 98.5091V108.573L557.236 107.704V136.611C556.539 136.972 555.935 137.345 555.442 137.701L552.922 139.52V141.678L550.491 143.304L552.922 146.821V156.112L554.771 154.918V156.616C554.334 156.874 553.94 157.132 553.593 157.383L551.074 159.201V162.211L548.899 163.766L551.074 167.13V176.46L553.381 174.97V220.849L551.1 222.822C550.709 223.052 550.349 223.28 550.022 223.504L547.376 225.313V229.654L545.084 231.243L547.376 234.678V243.355L551.305 240.951L548.126 336.677C542.588 338.438 537.867 340.734 534.516 342.83L529.368 346.049L532.084 350.399C532.07 350.96 531.988 351.766 531.821 352.78C531.654 353.787 531.431 354.846 531.192 355.844C530.453 356.132 529.739 356.422 529.052 356.712Z" fill="#659A70"/>
</g>
<g filter="url(#filter3_i)">
<path d="M533.798 519.205C530.224 531.528 515.538 557.375 485.39 562.182C491.298 548.928 509.25 521.776 533.798 519.205Z" fill="#659A70"/>
<path d="M590.35 519.653C593.925 531.976 608.61 557.823 638.758 562.63C632.851 549.376 614.898 522.224 590.35 519.653Z" fill="#659A70"/>
<path d="M533.529 486.418C506.906 501.672 438.694 521.708 378.841 479.824C411.027 466.85 487.026 450.004 533.529 486.418Z" fill="#659A70"/>
<path d="M590.619 486.866C617.243 502.12 685.454 522.156 745.307 480.272C713.121 467.298 637.122 450.452 590.619 486.866Z" fill="#659A70"/>
<path d="M524.313 447.251C466.87 437.526 342.639 384.664 305.258 251.018C368.119 270.796 499.935 337.731 524.313 447.251Z" fill="#659A70"/>
<path d="M599.836 447.699C657.278 437.974 781.509 385.113 818.89 251.466C756.03 271.244 624.214 338.179 599.836 447.699Z" fill="#659A70"/>
</g>
<g style="mix-blend-mode:soft-light">
<path d="M564.231 86.3118V96.4859H566.696V86.3118C565.464 85.3253 564.539 85.9008 564.231 86.3118Z" fill="#659A70"/>
<path d="M563.307 97.339V146.051H567.62V97.339C565.648 95.3658 563.923 96.5168 563.307 97.339Z" fill="#53BDB8"/>
<path d="M560.842 147.076V168.657L570.085 168.349V147.076C566.388 144.363 562.382 145.946 560.842 147.076Z" fill="#53BDB8"/>
<path d="M557.453 238.735L554.063 340.784C562.444 351.143 570.291 345.1 573.167 340.784V238.735C566.758 233.062 560.02 236.372 557.453 238.735Z" fill="#53BDB8"/>
<path d="M537.733 347.981C538.966 349.954 537.22 357.23 536.193 360.622L590.421 359.388C588.942 358.402 589.805 351.373 590.421 347.981C571.934 333.183 547.593 341.815 537.733 347.981Z" fill="#514161"/>
<path d="M528.49 381.512C526.518 385.952 530.338 388.295 532.495 388.912C551.968 393.105 581.486 390.659 593.81 388.912C598.247 384.965 598.946 382.335 598.74 381.512C598.001 370.167 599.665 366.508 600.589 366.097C571.749 349.325 539.479 359.726 526.949 367.022C528.181 368.749 528.49 377.402 528.49 381.512Z" fill="#514161"/>
<path d="M529.054 381.577C526.342 385.77 530.594 388.257 533.059 388.976C560.667 392.183 585.028 390.312 593.758 388.976C598.935 385.277 599.202 382.502 598.688 381.577C572.498 368.32 532.443 376.336 529.054 381.577Z" fill="#659A70"/>
<ellipse cx="563.307" cy="395.613" rx="34.5091" ry="15.1069" fill="#514161"/>
<ellipse cx="562.69" cy="403.321" rx="30.1955" ry="8.01591" fill="#659A70"/>
<path d="M579.945 648.824H539.274L549.442 404.955C558.315 401.995 569.777 403.722 574.399 404.955L579.945 648.824Z" fill="#53BDB8"/>
<path d="M527.565 364.077V366.235C556.898 351.437 587.648 359.453 599.357 365.31V364.077C573.721 348.045 540.814 357.397 527.565 364.077Z" fill="#659A70"/>
<path d="M553.447 232.837L557.35 238.686C564.315 233.268 570.86 236.428 573.261 238.686L576.864 232.837C567.017 226.679 557.15 230.271 553.447 232.837Z" fill="#514161"/>
<path d="M557.144 165.336L559.917 169.626C564.866 165.652 569.516 167.97 571.223 169.626L573.783 165.336C566.786 160.821 559.775 163.455 557.144 165.336Z" fill="#514161"/>
<path d="M558.993 144.925L561.15 148.045C564.999 145.155 568.616 146.841 569.943 148.045L571.934 144.925C566.492 141.641 561.039 143.557 558.993 144.925Z" fill="#514161"/>
<path d="M562.074 96.5394L563.204 98.0993C565.22 96.6543 567.115 97.4972 567.81 98.0993L568.853 96.5394C566.002 94.8975 563.146 95.8553 562.074 96.5394Z" fill="#514161"/>
<path d="M553.447 228.519V232.52C563.909 226.119 573.417 229.853 576.864 232.52V228.519C567.132 222.364 557.198 225.955 553.447 228.519Z" fill="#659A70"/>
<path d="M557.144 162.309V165.31C564.578 160.509 571.334 163.309 573.783 165.31V162.309C566.868 157.693 559.809 160.386 557.144 162.309Z" fill="#659A70"/>
<path d="M558.993 142.628V144.962C564.775 141.227 570.029 143.406 571.934 144.962V142.628C566.556 139.037 561.066 141.132 558.993 142.628Z" fill="#659A70"/>
<path d="M562.074 95.5325V96.8661C565.103 94.7323 567.855 95.977 568.853 96.8661V95.5325C566.036 93.4808 563.16 94.6776 562.074 95.5325Z" fill="#659A70"/>
<path d="M576.864 228.82C566.777 223.2 557.05 226.479 553.447 228.82L559.451 223.628V169.26C565.936 166.572 570.359 168.14 571.76 169.26L572.06 223.628L576.864 228.82Z" fill="#53BDB8"/>
</g>
<path d="M560.487 647.849C393.375 647.443 258.136 425.978 258.413 153.201C258.572 -9.09613 306.528 -7.74231 380.543 20.0964C368.6 38.8948 361.894 78.9152 361.822 153.462C361.544 426.234 450.487 647.583 560.487 647.849Z" fill="#53BDB8"/>
<path d="M519.58 429.761C430.037 495.061 397.281 483.038 392.095 468.865C392.095 491.947 414.355 499.996 425.484 501.135C530.507 470.459 656.17 488.353 705.873 501.135C733.798 501.439 742.044 479.748 742.677 468.865C721.126 496.807 646.178 455.451 611.398 431.28L609.881 429.761C577.403 462.866 536.147 443.555 519.58 429.761Z" fill="#0B2322"/>
<path d="M569.206 490.996L923.071 380.615C945.91 386.272 979.492 407.535 931.111 447.329L571.204 507.58L546.898 501.515L569.206 490.996Z" fill="#53BDB8"/>
<path d="M933.903 380.787C950.242 389.006 972.926 414.206 933.903 448.744C921.255 434.443 903.549 399.617 933.903 380.787Z" fill="#0B2322"/>
<g clip-path="url(#clip0)">
<path d="M992.982 75.2368C988.283 78.0755 985.679 69.5362 980.74 72.5197C980.74 72.5197 981.583 76.7086 979.187 76.1127C976.789 75.5239 967.864 67.5437 952.396 76.8876C952.396 76.8876 961.604 66.0469 974.48 66.1834C987.353 66.3272 997.686 72.3954 992.982 75.2368ZM1024.34 157.445C1032.84 159.543 1031.91 166.662 1035.66 167.579C1039.4 168.504 1039.82 164.228 1043.26 169.92C1046.69 175.607 1043 188.383 1043 188.383C1043 188.383 1042.76 169.22 1038.28 171.927C1033.79 174.638 1031.26 174.809 1028.34 169.977C1025.43 165.14 1016.58 162.133 1016.58 162.133C1016.58 162.133 1015.84 155.345 1024.34 157.445ZM1021.67 65.5371C1005.71 56.8427 998.994 63.4561 998.994 63.4561C998.994 63.4561 993.992 51.9831 971.418 53.2537C948.851 54.5144 936.392 76.9676 936.392 76.9676C936.392 76.9676 930.725 65.0378 911.625 66.3466C892.522 67.6509 894.219 93.918 894.219 93.918C894.219 93.918 873.553 102.136 883.991 113.739C883.991 113.739 863.69 120.033 872.286 137.441C872.286 137.441 829.657 133.344 834.627 159.338C839.598 185.324 848.422 191.081 848.422 191.081C848.422 191.081 839.249 192.357 837.598 201.034C835.948 209.704 837.457 212.206 837.457 212.206C837.457 212.206 816.738 227.463 843.493 248.211C843.493 248.211 849.405 274.488 871.864 268.601C894.317 262.711 887.112 240.623 887.112 240.623C887.112 240.623 894.666 241.727 903.118 231.658C903.118 231.658 948.701 229.86 951.637 214.443C951.637 214.443 955.836 220.574 960.378 221.342C956.531 222.259 950.728 224.413 949.822 229.182C949.822 229.182 886.948 246.692 897.946 280.131C897.946 280.131 875.143 280.263 889.85 304.641C889.85 304.641 884.257 311.643 890.113 313.433C890.113 313.433 885.439 314.553 877.479 315.947C869.527 317.343 868.502 331.815 872.488 333.031C872.488 333.031 861.852 343.296 874.272 357.541C886.693 371.785 894.172 368.972 894.172 368.972C894.172 368.972 899.591 388.724 912.97 386.186C926.357 383.642 929.529 380.021 929.529 380.021C929.529 380.021 941.06 383.289 950.88 379.916C960.704 376.539 961.468 381.621 959.814 390.296C957.91 400.293 933.091 397.227 932.122 419.137C934.069 404.813 966.225 413.963 971.417 386.697C974.863 368.625 964.045 369.404 964.045 369.404C964.045 369.404 967.321 358.1 958.819 355.505C950.317 352.91 944.068 362.284 944.068 362.284C944.068 362.284 933.494 364.407 928.592 356.282C923.69 348.157 907.43 357.979 907.43 357.979C907.43 357.979 902.982 346.168 895.493 347.707C895.493 347.707 900.838 336.589 912.323 340.098C923.813 343.605 945.394 342.295 949.866 335.755C951.681 333.098 951.35 330.257 950.327 327.816C954.169 331.288 960.786 333.96 971.285 328.787C990.445 319.344 982.088 313.307 982.088 313.307C982.088 313.307 999.071 320.956 1006.32 307.621C1013.57 294.288 1003.38 291.333 1003.38 291.333C1003.38 291.333 1004.25 280.731 997.395 276.344C990.54 271.957 984.191 276.645 984.191 276.645L973.796 276.528C973.796 276.528 992.93 272.432 994.63 263.517C994.63 263.517 1006.85 274.257 1018.62 267.145C1018.62 267.145 1040.89 279.17 1046.37 250.383C1046.37 250.383 1066.21 245.862 1059.95 226.614C1059.95 226.614 1074.31 211.115 1068.28 201.116C1062.25 191.117 1056.44 191.638 1056.44 191.638C1056.44 191.638 1067.04 172.441 1057.81 157.131C1048.57 141.816 1039.05 151.403 1039.05 151.403C1039.05 151.403 1032.93 141.885 1021.31 142.931C1009.71 143.974 1009.65 152.109 1009.65 152.109C1009.65 152.109 1002.06 151.574 1001.28 142.669C1000.49 133.764 1020.26 136.746 1027.44 128.993C1034.62 121.242 1038.23 98.3807 1022.53 93.5877C1022.53 93.5877 1037.63 74.2343 1021.67 65.5371Z" fill="#666D6D"/>
<path d="M992.978 251.272C992.978 251.272 997.891 262.377 1010.63 258.201C1010.63 258.201 1020.95 269.559 1030.85 263.578C1040.75 257.594 1039.95 247.523 1039.95 247.523C1039.95 247.523 1044.71 243.973 1052.33 236.526C1059.97 229.077 1053.39 220.057 1053.39 220.057C1053.39 220.057 1063.67 208.145 1053.21 201.485C1053.21 201.485 1052.08 213.223 1044.35 217.894C1044.35 217.894 1054.6 231.641 1034.33 243.881C1034.33 243.881 1036.86 248.22 1028.7 253.151C1020.53 258.082 1011.79 253.982 1011.79 253.982C1011.79 253.982 998.682 260.726 992.978 251.272Z" fill="#E6E6E6"/>
<path d="M966.875 176.034C956.549 172.52 947.474 182.253 945.572 185.231C940.716 179.534 931.223 170.328 921.073 171.041C906.45 172.064 902.467 191.85 902.467 191.85C902.467 191.85 888.654 181.43 877.173 193.49C865.692 205.55 877.135 219.659 877.135 219.659C879.933 224.296 886.51 250.742 863.939 257.042C855.432 259.419 850.288 258.305 847.173 255.999C851.312 262.412 858.619 268.693 870.811 265.497C893.266 259.608 886.06 237.522 886.06 237.522C886.06 237.522 893.613 238.624 902.066 228.551C902.066 228.551 947.649 226.758 950.585 211.339C950.585 211.339 954.763 217.447 959.298 218.231C969.817 210.387 986.477 182.71 966.875 176.034Z" fill="#E6E6E6"/>
<path d="M982.873 307.098C985.429 307.729 994.459 296.582 989.793 288.847C985.126 281.112 970.17 286.042 975.614 295.066C981.059 304.09 951.714 305.399 951.714 305.399C951.714 305.399 962.041 312.8 953.449 317.99C944.857 323.18 932.732 320.97 932.732 320.97C932.732 320.97 937.983 327.332 928.021 333.35C918.059 339.368 906.177 332.907 898.874 337.319C891.571 341.73 892.193 349.563 892.193 349.563C896.919 346.708 902.845 356.026 905.844 360.997C908.843 365.967 912.971 364.57 918.985 360.937C924.999 357.303 935.785 368.379 941.959 372.949C948.135 377.521 945.785 367.467 953.505 362.804C961.225 358.141 963.782 369.569 963.782 369.569C963.782 369.569 967.057 358.266 958.556 355.67C950.051 353.076 943.802 362.451 943.802 362.451C943.802 362.451 933.23 364.572 928.328 356.448C923.426 348.323 907.166 358.145 907.166 358.145C907.166 358.145 902.72 346.335 895.231 347.875C895.231 347.875 900.574 336.755 912.059 340.266C923.547 343.772 945.13 342.461 949.602 335.922C951.416 333.265 951.085 330.423 950.063 327.982C953.905 331.454 960.523 334.126 971.019 328.954C990.18 319.51 981.825 313.472 981.825 313.472C981.825 313.472 998.808 321.122 1006.06 307.786C1007.27 305.563 1007.99 303.63 1008.36 301.949C1004.43 302.299 998.637 304.944 993.688 307.933C983.807 313.902 980.322 306.465 982.873 307.098Z" fill="#E6E6E6"/>
</g>
<ellipse cx="264.232" cy="362.564" rx="18.5914" ry="18.6027" fill="#666D6D"/>
<ellipse cx="251.711" cy="333.331" rx="6.82951" ry="6.83366" fill="#666D6D"/>
<ellipse cx="237.673" cy="352.693" rx="4.17359" ry="4.17613" fill="#666D6D"/>
<path d="M555.624 594.149C533.77 569.548 527.547 551.249 527.168 545.174H604.189C587.192 579.798 576.871 592.251 573.836 594.149C565.944 602.349 558.406 597.566 555.624 594.149Z" fill="#0B2322"/>
<path d="M537.792 495.061C534.453 492.327 500.988 499.237 484.673 503.033C484.673 506.982 524.386 506.45 544.242 505.691C556.687 512.373 576.239 508.475 584.46 505.691C635.454 507.817 645.672 504.805 644.408 503.033C607.073 494.226 594.198 494.048 592.428 495.061C566.627 507.21 545.253 500.123 537.792 495.061Z" fill="#0B2322"/>
<path d="M604.569 537.202C593.035 540.239 544.368 538.467 521.477 537.202C513.227 533.217 503.667 525.809 499.167 521.977C501.96 532.88 515.204 541.225 521.477 544.035C545.152 549.502 588.507 546.313 607.225 544.035C613.599 544.035 624.805 528.849 629.61 521.257C623.54 527.938 610.387 534.671 604.569 537.202Z" fill="#0B2322"/>
<path d="M530.583 397.491C524.512 385.039 517.177 389.772 514.268 393.695L516.544 394.454C520.794 394.15 526.915 398.124 529.444 400.149C565.11 465.448 599.636 398.251 600.775 398.63C601.685 398.934 609.501 395.466 613.295 393.695V391.417C605.404 387.165 600.142 392.429 598.498 395.593C569.359 440.24 541.08 415.461 530.583 397.491Z" fill="#0B2322"/>
<path d="M613.675 406.223C637.654 402.275 628.725 379.268 621.263 368.258V367.499C621.263 366.892 623.287 368.511 624.299 369.397C648.278 399.769 628.472 408.628 615.572 409.26C614.054 409.26 613.675 407.235 613.675 406.223Z" fill="#0B2322"/>
<path d="M515.027 406.223C492.869 403.186 500.735 379.395 507.438 367.879C506.831 366.664 505.921 367.373 505.541 367.879C474.429 407.742 514.268 408.501 515.027 408.501C515.634 408.501 515.28 406.983 515.027 406.223Z" fill="#0B2322"/>
<defs>
<filter id="filter0_d" x="258.419" y="5.83862" width="649.051" height="684.363" filterUnits="userSpaceOnUse" color-interpolation-filters="sRGB">
<feFlood flood-opacity="0" result="BackgroundImageFix"/>
<feColorMatrix in="SourceAlpha" type="matrix" values="0 0 0 0 0 0 0 0 0 0 0 0 0 0 0 0 0 0 127 0"/>
<feOffset dx="23" dy="23"/>
<feGaussianBlur stdDeviation="10"/>
<feColorMatrix type="matrix" values="0 0 0 0 0 0 0 0 0 0 0 0 0 0 0 0 0 0 0.25 0"/>
<feBlend mode="normal" in2="BackgroundImageFix" result="effect1_dropShadow"/>
<feBlend mode="normal" in="SourceGraphic" in2="effect1_dropShadow" result="shape"/>
</filter>
<filter id="filter1_i" x="226.419" y="5.83862" width="638.051" height="641.363" filterUnits="userSpaceOnUse" color-interpolation-filters="sRGB">
<feFlood flood-opacity="0" result="BackgroundImageFix"/>
<feBlend mode="normal" in="SourceGraphic" in2="BackgroundImageFix" result="shape"/>
<feColorMatrix in="SourceAlpha" type="matrix" values="0 0 0 0 0 0 0 0 0 0 0 0 0 0 0 0 0 0 127 0" result="hardAlpha"/>
<feOffset dx="-32"/>
<feGaussianBlur stdDeviation="40"/>
<feComposite in2="hardAlpha" operator="arithmetic" k2="-1" k3="1"/>
<feColorMatrix type="matrix" values="0 0 0 0 0 0 0 0 0 0 0 0 0 0 0 0 0 0 0.25 0"/>
<feBlend mode="normal" in2="shape" result="effect1_innerShadow"/>
</filter>
<filter id="filter2_i" x="506.455" y="0.593018" width="110.926" height="356.977" filterUnits="userSpaceOnUse" color-interpolation-filters="sRGB">
<feFlood flood-opacity="0" result="BackgroundImageFix"/>
<feBlend mode="normal" in="SourceGraphic" in2="BackgroundImageFix" result="shape"/>
<feColorMatrix in="SourceAlpha" type="matrix" values="0 0 0 0 0 0 0 0 0 0 0 0 0 0 0 0 0 0 127 0" result="hardAlpha"/>
<feOffset dy="-7"/>
<feGaussianBlur stdDeviation="12"/>
<feComposite in2="hardAlpha" operator="arithmetic" k2="-1" k3="1"/>
<feColorMatrix type="matrix" values="0 0 0 0 0 0 0 0 0 0 0 0 0 0 0 0 0 0 0.25 0"/>
<feBlend mode="normal" in2="shape" result="effect1_innerShadow"/>
</filter>
<filter id="filter3_i" x="305.258" y="243.018" width="513.632" height="319.612" filterUnits="userSpaceOnUse" color-interpolation-filters="sRGB">
<feFlood flood-opacity="0" result="BackgroundImageFix"/>
<feBlend mode="normal" in="SourceGraphic" in2="BackgroundImageFix" result="shape"/>
<feColorMatrix in="SourceAlpha" type="matrix" values="0 0 0 0 0 0 0 0 0 0 0 0 0 0 0 0 0 0 127 0" result="hardAlpha"/>
<feOffset dy="-8"/>
<feGaussianBlur stdDeviation="11.5"/>
<feComposite in2="hardAlpha" operator="arithmetic" k2="-1" k3="1"/>
<feColorMatrix type="matrix" values="0 0 0 0 0 0 0 0 0 0 0 0 0 0 0 0 0 0 0.25 0"/>
<feBlend mode="normal" in2="shape" result="effect1_innerShadow"/>
</filter>
<clipPath id="clip0">
<rect width="280.055" height="315.816" fill="white" transform="matrix(0.855953 -0.517053 0.516593 0.856231 754.059 159.23)"/>
</clipPath>
</defs>
</svg>
