<svg width="1440" height="941" viewBox="0 0 1440 941" fill="none" xmlns="http://www.w3.org/2000/svg">
<path d="M692.165 849.08C692.165 849.08 678.016 808.241 657.112 788.969C636.216 769.706 632.784 787.802 621.172 775.887C609.553 763.963 609.924 758.227 608.42 759.39C606.917 760.552 604.148 752.698 588.726 756.447C573.304 760.195 558.329 745.875 560.209 744.422C562.09 742.968 565.637 742.506 573.795 745.29C581.947 748.065 592.665 742.505 592.665 742.505C592.665 742.505 584.224 738.577 575.073 738.396C565.916 738.205 567.284 727.153 580.702 728.581C594.126 730.019 611.066 733.285 620.071 744.935C629.083 756.594 631.002 761.019 640.058 759.912C649.119 758.815 661.088 778.183 661.088 778.183C661.088 778.183 664.475 776.009 671.365 781.595C678.247 787.172 700.357 828.208 692.165 849.08Z" fill="#666D6D"/>
<path d="M502.894 711.069C504.931 711.76 514.972 715.813 509.933 725.615C504.889 735.407 489.25 736.155 489.25 736.155C489.25 736.155 501.684 759.234 481.94 769.047C481.94 769.047 477.878 781.278 481.95 782.661C486.029 784.053 480.288 778.956 492.83 776.531C505.371 774.106 513.506 790.071 513.506 790.071C513.506 790.071 508.775 763.747 532.985 768.648C532.985 768.648 538.83 742.795 526.579 722.283C514.328 701.772 497.488 697.081 497.488 697.081C497.488 697.081 501.495 692.163 511.821 700.082C522.147 708.001 525.655 709.82 525.655 709.82C525.655 709.82 526.557 703.216 507.638 686.511C488.711 669.798 485.724 672.343 479.4 670.184C473.083 668.035 470.74 660.533 470.74 660.533C453.414 654.368 423.037 648.03 437.576 642.107C446.259 638.578 469.02 653.453 468.661 648.519C468.294 643.576 437.472 629.928 429.764 635.886C422.056 641.844 410.693 630.64 410.693 630.64C410.693 630.64 404.26 626.981 397.116 632.503C389.972 638.025 385.012 627.335 394.036 620.359C403.06 613.384 436.426 615.754 447.718 623.37C459.012 630.986 464.432 620.903 476.101 628.229C487.771 635.554 499.233 653.492 500.457 653.908C501.68 654.325 502.434 656.466 520.951 675.761C539.47 695.055 543.386 718.383 543.671 722.248C543.957 726.114 563.061 772.198 554.138 788.63C545.215 805.062 539.415 801.831 539.415 801.831C539.415 801.831 538.93 816.746 528.554 821.583C518.178 826.42 508.264 821.365 508.264 821.365C508.264 821.365 499.737 818.881 489.585 826.728C479.433 834.575 457.782 821.33 457.15 812.742C457.15 812.742 445.318 803.263 446.814 791.21C448.302 779.148 456.209 778.499 456.209 778.499C456.209 778.499 446.157 760.833 448.778 745.186C451.393 729.529 469.485 729.624 469.485 729.624C469.485 729.624 471.545 717.135 481.696 709.288C491.848 701.441 498.285 710.545 498.285 710.545L502.894 711.069Z" fill="#666D6D"/>
<path d="M375.797 634.452C375.797 634.452 387.371 635.049 387.748 640.201C388.133 645.361 377.316 646.907 355.713 653.153C334.119 659.406 331.613 665.876 322.406 675.722C313.198 685.569 308.294 675.73 308.294 675.73C308.294 675.73 298.056 690.459 302.521 705.17C306.985 719.882 296.145 737.134 287.781 734.279C279.425 731.433 275.643 734.118 276.377 744.004C277.111 753.89 281.95 771.027 270.135 772.45C258.313 773.863 263.367 812.65 279.203 814.486C295.037 816.324 279.473 804.734 295.025 799.989C310.571 795.234 311.092 815.724 311.092 815.724C311.092 815.724 321.926 798.268 327.303 782.301C332.68 766.334 346.171 771.355 346.171 771.355C346.171 771.355 346.7 751.873 341.895 740.587C337.097 729.309 347.939 738.867 347.832 737.369C347.718 735.861 337.462 718.125 329.174 705.46C320.885 692.795 345.244 688.952 354.965 720.955C364.686 752.958 377.204 798.68 340.356 827.162C340.356 827.162 320.777 847.292 305.011 849.041C289.237 850.78 292.051 840.433 292.051 840.433C292.051 840.433 259.225 842.648 243.773 819.161C228.329 795.683 238.947 783.39 238.947 783.39C238.947 783.39 247.564 778.996 238.108 764.041C228.658 749.097 217.39 739.182 245.126 724.557C272.864 709.931 274.496 711.264 267.182 706.077C259.876 700.899 263.847 690.104 275.374 679.375C286.902 668.645 293.678 668.865 293.678 668.865C293.678 668.865 306.991 658.112 315.604 642.835C324.21 627.549 375.797 634.452 375.797 634.452Z" fill="#666D6D"/>
<path d="M276.229 668.131C276.229 668.131 255.15 681.42 255.642 688.12C256.141 694.83 231.498 670.097 242.651 665.099C253.811 660.111 257.525 661.03 257.525 661.03C257.525 661.03 247.17 656.956 262.125 654.545C277.072 652.125 276.229 668.131 276.229 668.131Z" fill="#666D6D"/>
<path d="M309.811 285.667C309.811 285.667 288.732 298.956 289.224 305.656C289.723 312.366 265.081 287.633 276.234 282.635C287.394 277.647 291.108 278.565 291.108 278.565C291.108 278.565 280.753 274.492 295.707 272.081C310.654 269.661 309.811 285.667 309.811 285.667Z" fill="#666D6D"/>
<path d="M239.125 684.629C239.125 684.629 253.088 684.821 244.44 691.505C235.792 698.19 239.125 684.629 239.125 684.629Z" fill="#666D6D"/>
<path d="M283.844 320.971C283.844 320.971 297.807 321.162 289.159 327.847C280.511 334.532 283.844 320.971 283.844 320.971Z" fill="#666D6D"/>
<path d="M227.989 652.345C227.989 652.345 230.492 672.257 220.898 668.987C211.305 665.717 214.324 647.691 227.989 652.345Z" fill="#666D6D"/>
<path d="M263.598 269.956C263.598 269.956 266.101 289.868 256.507 286.598C246.913 283.328 249.932 265.302 263.598 269.956Z" fill="#666D6D"/>
<path d="M445.623 776.155C445.623 776.155 446.059 793.733 438.961 791.313C431.864 788.893 435.043 773.821 445.623 776.155Z" fill="#666D6D"/>
<path d="M567.806 718.976C567.806 718.976 592.912 727.226 592.543 722.227C592.173 717.227 567.357 712.957 567.806 718.976Z" fill="#666D6D"/>
<path d="M245.288 735.338C242.292 746.227 257.782 751.502 254.022 754.408C250.262 757.315 246.199 766.822 250.154 771.938C254.108 777.054 249.652 783.193 250.518 794.945C251.385 806.697 252.451 813.764 264.557 821.656C276.671 829.555 290.093 828.271 290.093 828.271C290.093 828.271 303.638 831.807 301.007 833.841C298.374 835.875 295.111 842.617 300.059 845.825C302.236 847.237 308.906 846.701 315.695 845.643C312.115 847.388 308.476 848.661 305.014 849.043C289.24 850.783 292.054 840.435 292.054 840.435C292.054 840.435 259.222 842.643 243.778 819.166C228.326 795.68 238.945 783.386 238.945 783.386C238.945 783.386 247.561 778.99 238.11 764.043C228.659 749.096 217.397 739.19 245.132 724.563C253.791 719.987 259.908 716.976 264.006 714.844C257.095 719.994 247.203 728.381 245.288 735.338Z" fill="#E6E6E6"/>
<path d="M471.594 804.316C471.594 804.316 475.674 816.975 483.422 819.618C491.171 822.26 493.828 809.768 493.828 809.768C493.828 809.768 514.526 815.562 522.422 809.459C530.317 803.356 529.299 789.604 529.299 789.604C539.717 793.159 547.023 763.823 550.619 744.475C555.12 759.873 559.275 779.167 554.138 788.63C545.215 805.062 539.415 801.831 539.415 801.831C539.415 801.831 538.93 816.746 528.554 821.583C518.178 826.42 508.264 821.365 508.264 821.365C508.264 821.365 499.737 818.881 489.585 826.728C487.339 828.464 484.53 829.169 481.511 829.119C480.262 827.376 478.75 825.228 477.782 823.977C466.356 809.195 471.594 804.316 471.594 804.316Z" fill="#E6E6E6"/>
<g filter="url(#filter0_d)">
<g filter="url(#filter1_i)">
<path fill-rule="evenodd" clip-rule="evenodd" d="M322.839 201.618C322.272 560.602 500.6 851.952 721.146 852.368C941.692 852.785 1120.94 562.105 1121.51 203.123C1121.88 -37.0066 1041.84 -5.25762 922.777 41.9627C863.849 65.3343 795.366 92.4959 722.349 92.3586C649.331 92.2213 580.933 64.8014 522.079 41.2074C403.169 -6.4619 323.218 -38.5133 322.839 201.618ZM611 304.5C611 344.541 578.541 377 538.5 377C498.459 377 466 344.541 466 304.5C466 264.459 498.459 232 538.5 232C578.541 232 611 264.459 611 304.5ZM935.5 374C975.541 374 1008 341.541 1008 301.5C1008 261.459 975.541 229 935.5 229C895.459 229 863 261.459 863 301.5C863 341.541 895.459 374 935.5 374Z" fill="#00615C"/>
</g>
<path d="M557.131 252.721C518.871 228.084 474.642 217.566 434.907 220.654C470.651 192.599 532.164 193.322 580.744 224.609C629.325 255.895 648.441 307.095 628.507 345.334C620.033 311.198 595.391 277.361 557.131 252.721Z" fill="#0B2322"/>
<path d="M923.162 259.152C883.412 281.239 853.035 315.032 836.614 351.155C829.47 307.037 859.663 253.646 910.138 225.603C960.612 197.559 1014.19 204.404 1037.76 239.397C1004.09 231.104 962.911 237.068 923.162 259.152Z" fill="#0B2322"/>
<path d="M937.298 212.802C904.964 217.509 877.194 234.54 858.95 257.927C861.843 220.581 893.029 187.925 934.086 181.95C975.142 175.975 1012.1 198.713 1022.57 234.117C1000.07 216.659 969.63 208.098 937.298 212.802Z" fill="#0B2322"/>
<path d="M544.451 200.818C576.791 205.48 604.584 222.472 622.861 245.834C619.917 208.492 588.685 175.879 547.62 169.961C506.555 164.043 469.633 186.833 459.212 222.251C481.687 204.762 512.112 196.158 544.451 200.818Z" fill="#0B2322"/>
</g>
<g filter="url(#filter2_i)">
<path fill-rule="evenodd" clip-rule="evenodd" d="M679.482 469.793C640.321 350.999 624.037 173.871 731.958 10C773.233 104.736 827.018 306.858 773.368 470.923C771.364 469.79 769.337 468.759 767.293 467.823C767.298 467.678 767.304 467.526 767.312 467.368C767.432 464.8 767.86 461.742 768.227 459.726L769.081 455.03L765.353 452.048C759.065 447.017 752.361 443.771 745.617 441.849V318.763L750.49 322.532V308.915L753.472 304.077L750.49 302.214V296.555L746.765 294.2L744.143 291.367L743.817 232.44L746.43 234.572V219.956L749.26 215.216L746.43 213.39V209.483L742.87 207.108C742.432 206.816 741.995 206.54 741.557 206.279V205.785L743.993 207.774V193.204L747.153 188.256L743.993 186.35V183.563L740.433 181.187C739.725 180.715 739.016 180.292 738.309 179.914V143.964L739.933 145.411V129.573L743.34 124.479L739.933 122.518V121.745L737.091 119.677V109.829L734.088 107.427C731.819 105.611 728.858 104.555 725.671 105.096C722.816 105.581 720.695 107.203 719.442 108.874L717.842 111.007V119.696L715 121.932V122.758L711.541 124.964L715 129.737V142.991L716.624 141.848V179.918C715.705 180.393 714.909 180.885 714.26 181.354L710.94 183.749V186.592L707.735 188.733L710.94 193.365V205.602L713.376 204.029V206.265C712.8 206.605 712.281 206.945 711.823 207.274L708.503 209.669V213.634L705.638 215.682L708.503 220.112V232.4L711.543 230.438V290.861L708.538 293.458C708.023 293.761 707.548 294.062 707.117 294.357L703.631 296.739V302.457L700.61 304.549L703.631 309.073V320.501L708.808 317.335L704.618 443.407C697.321 445.726 691.099 448.751 686.683 451.511L679.899 455.751L683.479 461.478C683.46 462.218 683.352 463.28 683.131 464.615C682.912 465.941 682.617 467.336 682.304 468.651C681.33 469.03 680.389 469.411 679.482 469.793Z" fill="#659A70"/>
</g>
<g filter="url(#filter3_i)">
<path d="M685.737 683.798C681.027 700.027 661.674 734.069 621.945 740.4C629.73 722.943 653.388 687.184 685.737 683.798Z" fill="#659A70"/>
<path d="M760.263 684.388C764.973 700.617 784.325 734.659 824.055 740.99C816.27 723.533 792.612 687.774 760.263 684.388Z" fill="#659A70"/>
<path d="M685.383 640.618C650.298 660.707 560.409 687.095 481.533 631.934C523.949 614.846 624.1 592.66 685.383 640.618Z" fill="#659A70"/>
<path d="M760.617 641.208C795.702 661.297 885.591 687.685 964.467 632.524C922.051 615.436 821.9 593.25 760.617 641.208Z" fill="#659A70"/>
<path d="M673.238 589.034C597.539 576.226 433.826 506.607 384.565 330.594C467.403 356.641 641.112 444.795 673.238 589.034Z" fill="#659A70"/>
<path d="M772.762 589.624C848.461 576.816 1012.17 507.197 1061.43 331.184C978.597 357.231 804.888 445.385 772.762 589.624Z" fill="#659A70"/>
</g>
<g style="mix-blend-mode:soft-light">
<path d="M725.842 113.673V127.073H729.091V113.673C727.466 112.374 726.248 113.132 725.842 113.673Z" fill="#659A70"/>
<path d="M724.624 128.196V192.351H730.309V128.196C727.71 125.598 725.436 127.113 724.624 128.196Z" fill="#53BDB8"/>
<path d="M721.376 193.701V222.124L733.557 221.718V193.701C728.684 190.128 723.406 192.212 721.376 193.701Z" fill="#53BDB8"/>
<path d="M716.909 314.417L712.443 448.816C723.487 462.459 733.828 454.501 737.617 448.816V314.417C729.172 306.946 720.293 311.304 716.909 314.417Z" fill="#53BDB8"/>
<path d="M690.923 458.295C692.547 460.893 690.246 470.476 688.893 474.942L760.356 473.318C758.407 472.019 759.544 462.761 760.356 458.295C735.993 438.805 703.916 450.174 690.923 458.295Z" fill="#514161"/>
<path d="M678.742 502.456C676.143 508.303 681.178 511.388 684.02 512.2C709.682 517.723 748.581 514.501 764.822 512.2C770.669 507.003 771.59 503.538 771.319 502.456C770.344 487.513 772.537 482.695 773.755 482.154C735.75 460.065 693.224 473.762 676.711 483.372C678.336 485.645 678.742 497.042 678.742 502.456Z" fill="#514161"/>
<path d="M679.485 502.541C675.912 508.063 681.516 511.339 684.764 512.286C721.145 516.509 753.249 514.045 764.754 512.286C771.575 507.413 771.927 503.759 771.25 502.541C736.737 485.081 683.952 495.638 679.485 502.541Z" fill="#659A70"/>
<ellipse cx="724.624" cy="521.026" rx="45.4765" ry="19.896" fill="#514161"/>
<ellipse cx="723.812" cy="531.178" rx="39.7919" ry="10.557" fill="#659A70"/>
<path d="M746.55 854.508H692.953L706.352 533.33C718.046 529.432 733.151 531.706 739.242 533.33L746.55 854.508Z" fill="#53BDB8"/>
<path d="M677.523 479.493V482.336C716.178 462.846 756.701 473.403 772.131 481.118V479.493C738.348 458.379 694.983 470.696 677.523 479.493Z" fill="#659A70"/>
<path d="M711.631 306.648L716.774 314.352C725.953 307.216 734.577 311.379 737.742 314.352L742.49 306.648C729.513 298.539 716.51 303.269 711.631 306.648Z" fill="#514161"/>
<path d="M716.503 217.75L720.158 223.399C726.679 218.166 732.807 221.218 735.056 223.399L738.43 217.75C729.209 211.803 719.97 215.272 716.503 217.75Z" fill="#514161"/>
<path d="M718.94 190.867L721.782 194.976C726.854 191.17 731.621 193.39 733.37 194.976L735.993 190.867C728.822 186.543 721.636 189.065 718.94 190.867Z" fill="#514161"/>
<path d="M723 127.143L724.489 129.198C727.146 127.295 729.642 128.405 730.559 129.198L731.933 127.143C728.176 124.981 724.412 126.242 723 127.143Z" fill="#514161"/>
<path d="M711.631 300.962V306.231C725.417 297.801 737.948 302.718 742.49 306.231V300.962C729.665 292.856 716.574 297.584 711.631 300.962Z" fill="#659A70"/>
<path d="M716.503 213.763V217.714C726.299 211.392 735.202 215.08 738.43 217.714V213.763C729.317 207.683 720.015 211.229 716.503 213.763Z" fill="#659A70"/>
<path d="M718.94 187.842V190.916C726.558 185.998 733.483 188.867 735.993 190.916V187.842C728.906 183.113 721.671 185.872 718.94 187.842Z" fill="#659A70"/>
<path d="M723 125.817V127.574C726.991 124.763 730.618 126.403 731.933 127.574V125.817C728.221 123.115 724.431 124.691 723 125.817Z" fill="#659A70"/>
<path d="M742.49 301.359C729.197 293.957 716.378 298.275 711.631 301.359L719.543 294.52V222.917C728.089 219.377 733.918 221.442 735.764 222.917L736.16 294.52L742.49 301.359Z" fill="#53BDB8"/>
</g>
<path d="M720.909 853.222C500.683 852.689 322.463 561.018 322.831 201.769C323.042 -11.9784 386.24 -10.1959 483.779 26.4672C468.04 51.2251 459.203 103.932 459.107 202.111C458.738 561.355 575.948 852.873 720.909 853.222Z" fill="#53BDB8"/>
<path d="M667 566C549 652 505.833 636.167 499 617.5C499 647.9 528.333 658.5 543 660C681.4 619.6 847 643.167 912.5 660C949.3 660.4 960.167 631.833 961 617.5C932.6 654.3 833.833 599.833 788 568L786 566C743.2 609.6 688.833 584.167 667 566Z" fill="#0B2322"/>
<path d="M732.398 646.646L1198.73 501.274C1228.82 508.724 1273.08 536.728 1209.32 589.137L735.031 668.488L703 660.5L732.398 646.646Z" fill="#53BDB8"/>
<path d="M1213 501.5C1234.53 512.326 1264.43 545.513 1213 591C1196.33 572.167 1173 526.3 1213 501.5Z" fill="#0B2322"/>
<g clip-path="url(#clip0)">
<path d="M1290.85 99.0877C1284.66 102.826 1281.23 91.5799 1274.72 95.5092C1274.72 95.5092 1275.83 101.026 1272.68 100.241C1269.52 99.4658 1257.75 88.9557 1237.37 101.262C1237.37 101.262 1249.51 86.9844 1266.47 87.1642C1283.44 87.3536 1297.05 95.3455 1290.85 99.0877ZM1332.18 207.357C1343.38 210.12 1342.16 219.495 1347.09 220.704C1352.02 221.922 1352.58 216.29 1357.11 223.786C1361.63 231.276 1356.78 248.102 1356.78 248.102C1356.78 248.102 1356.45 222.864 1350.55 226.43C1344.63 230 1341.3 230.225 1337.46 223.861C1333.61 217.491 1321.95 213.531 1321.95 213.531C1321.95 213.531 1320.98 204.59 1332.18 207.357ZM1328.66 86.3131C1307.63 74.8624 1298.78 83.5723 1298.78 83.5723C1298.78 83.5723 1292.19 68.4623 1262.44 70.1357C1232.7 71.7959 1216.28 101.367 1216.28 101.367C1216.28 101.367 1208.81 85.6555 1183.64 87.3792C1158.47 89.0969 1160.7 123.691 1160.7 123.691C1160.7 123.691 1133.47 134.514 1147.23 149.795C1147.23 149.795 1120.47 158.085 1131.8 181.011C1131.8 181.011 1075.62 175.615 1082.17 209.849C1088.72 244.074 1100.35 251.656 1100.35 251.656C1100.35 251.656 1088.26 253.336 1086.09 264.764C1083.91 276.182 1085.9 279.478 1085.9 279.478C1085.9 279.478 1058.6 299.571 1093.86 326.897C1093.86 326.897 1101.65 361.504 1131.25 353.75C1160.83 345.993 1151.34 316.903 1151.34 316.903C1151.34 316.903 1161.29 318.357 1172.43 305.096C1172.43 305.096 1232.5 302.728 1236.37 282.424C1236.37 282.424 1241.9 290.498 1247.89 291.51C1242.82 292.717 1235.17 295.554 1233.98 301.835C1233.98 301.835 1151.12 324.896 1165.62 368.936C1165.62 368.936 1135.57 369.11 1154.95 401.215C1154.95 401.215 1147.58 410.437 1155.29 412.795C1155.29 412.795 1149.13 414.27 1138.64 416.106C1128.17 417.944 1126.81 437.004 1132.07 438.606C1132.07 438.606 1118.05 452.124 1134.42 470.885C1150.79 489.644 1160.64 485.94 1160.64 485.94C1160.64 485.94 1167.78 511.953 1185.41 508.611C1203.06 505.261 1207.24 500.491 1207.24 500.491C1207.24 500.491 1222.43 504.795 1235.37 500.353C1248.32 495.906 1249.33 502.599 1247.15 514.023C1244.64 527.19 1211.93 523.153 1210.65 552.007C1213.22 533.143 1255.59 545.193 1262.44 509.284C1266.98 485.484 1252.72 486.509 1252.72 486.509C1252.72 486.509 1257.04 471.622 1245.83 468.203C1234.63 464.786 1226.4 477.131 1226.4 477.131C1226.4 477.131 1212.46 479.927 1206 469.227C1199.54 458.526 1178.11 471.462 1178.11 471.462C1178.11 471.462 1172.25 455.907 1162.38 457.934C1162.38 457.934 1169.43 443.291 1184.56 447.913C1199.7 452.531 1228.14 450.806 1234.04 442.193C1236.43 438.694 1235.99 434.952 1234.64 431.737C1239.71 436.31 1248.43 439.829 1262.26 433.016C1287.51 420.579 1276.5 412.628 1276.5 412.628C1276.5 412.628 1298.88 422.703 1308.44 405.14C1317.99 387.581 1304.55 383.689 1304.55 383.689C1304.55 383.689 1305.71 369.725 1296.67 363.948C1287.64 358.171 1279.27 364.344 1279.27 364.344L1265.57 364.19C1265.57 364.19 1290.79 358.796 1293.03 347.055C1293.03 347.055 1309.13 361.199 1324.64 351.833C1324.64 351.833 1353.99 367.67 1361.21 329.758C1361.21 329.758 1387.36 323.802 1379.11 298.453C1379.11 298.453 1398.04 278.041 1390.09 264.872C1382.14 251.703 1374.48 252.389 1374.48 252.389C1374.48 252.389 1388.46 227.107 1376.28 206.943C1364.11 186.773 1351.57 199.399 1351.57 199.399C1351.57 199.399 1343.5 186.865 1328.19 188.241C1312.89 189.615 1312.82 200.329 1312.82 200.329C1312.82 200.329 1302.82 199.625 1301.79 187.896C1300.74 176.169 1326.8 180.095 1336.27 169.884C1345.73 159.677 1350.49 129.568 1329.79 123.256C1329.79 123.256 1349.69 97.7673 1328.66 86.3131Z" fill="#666D6D"/>
<path d="M1290.85 330.928C1290.85 330.928 1297.32 345.554 1314.11 340.053C1314.11 340.053 1327.71 355.013 1340.76 347.135C1353.81 339.253 1352.75 325.99 1352.75 325.99C1352.75 325.99 1359.02 321.314 1369.07 311.507C1379.13 301.697 1370.46 289.818 1370.46 289.818C1370.46 289.818 1384.01 274.129 1370.22 265.358C1370.22 265.358 1368.74 280.817 1358.55 286.968C1358.55 286.968 1372.05 305.073 1345.35 321.194C1345.35 321.194 1348.67 326.909 1337.92 333.402C1327.16 339.896 1315.64 334.498 1315.64 334.498C1315.64 334.498 1298.37 343.38 1290.85 330.928Z" fill="#E6E6E6"/>
<path d="M1256.45 231.838C1242.84 227.211 1230.88 240.029 1228.38 243.952C1221.98 236.448 1209.47 224.324 1196.09 225.263C1176.82 226.61 1171.57 252.668 1171.57 252.668C1171.57 252.668 1153.37 238.946 1138.24 254.829C1123.11 270.712 1138.19 289.293 1138.19 289.293C1141.88 295.4 1150.55 330.23 1120.8 338.526C1109.59 341.657 1102.81 340.19 1098.71 337.154C1104.16 345.599 1113.79 353.872 1129.86 349.663C1159.45 341.907 1149.95 312.819 1149.95 312.819C1149.95 312.819 1159.91 314.271 1171.05 301.004C1171.05 301.004 1231.11 298.642 1234.98 278.336C1234.98 278.336 1240.49 286.38 1246.47 287.413C1260.33 277.082 1282.28 240.631 1256.45 231.838Z" fill="#E6E6E6"/>
<path d="M1277.53 404.451C1280.9 405.282 1292.8 390.601 1286.65 380.415C1280.5 370.227 1260.79 376.72 1267.97 388.605C1275.14 400.49 1236.47 402.214 1236.47 402.214C1236.47 402.214 1250.08 411.961 1238.76 418.796C1227.43 425.632 1211.46 422.721 1211.46 422.721C1211.46 422.721 1218.38 431.1 1205.25 439.026C1192.12 446.951 1176.46 438.442 1166.84 444.252C1157.21 450.062 1158.03 460.378 1158.03 460.378C1164.26 456.618 1172.07 468.89 1176.02 475.436C1179.98 481.983 1185.41 480.142 1193.34 475.357C1201.27 470.572 1215.48 485.159 1223.62 491.178C1231.76 497.199 1228.66 483.958 1238.83 477.816C1249.01 471.675 1252.38 486.726 1252.38 486.726C1252.38 486.726 1256.69 471.84 1245.49 468.421C1234.28 465.005 1226.05 477.351 1226.05 477.351C1226.05 477.351 1212.11 480.145 1205.65 469.445C1199.19 458.744 1177.77 471.68 1177.77 471.68C1177.77 471.68 1171.91 456.127 1162.04 458.154C1162.04 458.154 1169.08 443.51 1184.21 448.134C1199.35 452.751 1227.79 451.024 1233.69 442.412C1236.08 438.913 1235.64 435.171 1234.3 431.955C1239.36 436.528 1248.08 440.047 1261.91 433.236C1287.16 420.798 1276.15 412.846 1276.15 412.846C1276.15 412.846 1298.53 422.92 1308.09 405.357C1309.68 402.43 1310.63 399.884 1311.12 397.67C1305.94 398.131 1298.31 401.614 1291.79 405.551C1278.76 413.412 1274.17 403.617 1277.53 404.451Z" fill="#E6E6E6"/>
</g>
<circle cx="330.5" cy="477.5" r="24.5" fill="#666D6D"/>
<circle cx="314" cy="439" r="9" fill="#666D6D"/>
<circle cx="295.5" cy="464.5" r="5.5" fill="#666D6D"/>
<path d="M714.5 782.5C685.7 750.1 677.5 726 677 718H778.5C756.1 763.6 742.5 780 738.5 782.5C728.1 793.3 718.167 787 714.5 782.5Z" fill="#0B2322"/>
<path d="M691 652C686.6 648.4 642.5 657.5 621 662.5C621 667.7 673.333 667 699.5 666C715.9 674.8 741.667 669.667 752.5 666C819.7 668.8 833.167 664.833 831.5 662.5C782.3 650.9 765.333 650.667 763 652C729 668 700.833 658.667 691 652Z" fill="#0B2322"/>
<path d="M779 707.5C763.8 711.5 699.667 709.167 669.5 707.5C658.629 702.252 646.031 692.495 640.101 687.449C643.781 701.808 661.234 712.799 669.5 716.5C700.7 723.7 757.833 719.5 782.5 716.5C790.9 716.5 805.667 696.5 812 686.5C804 695.3 786.667 704.167 779 707.5Z" fill="#0B2322"/>
<path d="M681.5 523.5C673.5 507.1 663.833 513.333 660 518.5L663 519.5C668.6 519.1 676.667 524.333 680 527C727 613 772.5 524.5 774 525C775.2 525.4 785.5 520.833 790.5 518.5V515.5C780.1 509.9 773.167 516.833 771 521C732.6 579.8 695.333 547.167 681.5 523.5Z" fill="#0B2322"/>
<path d="M791 535C822.6 529.8 810.833 499.5 801 485V484C801 483.2 803.667 485.333 805 486.5C836.6 526.5 810.5 538.167 793.5 539C791.5 539 791 536.333 791 535Z" fill="#0B2322"/>
<path d="M661 535C631.8 531 642.167 499.667 651 484.5C650.2 482.9 649 483.833 648.5 484.5C607.5 537 660 538 661 538C661.8 538 661.333 536 661 535Z" fill="#0B2322"/>
<defs>
<filter id="filter0_d" x="314.84" y="0.122803" width="852.102" height="900.083" filterUnits="userSpaceOnUse" color-interpolation-filters="sRGB">
<feFlood flood-opacity="0" result="BackgroundImageFix"/>
<feColorMatrix in="SourceAlpha" type="matrix" values="0 0 0 0 0 0 0 0 0 0 0 0 0 0 0 0 0 0 127 0"/>
<feOffset dx="23" dy="23"/>
<feGaussianBlur stdDeviation="10"/>
<feColorMatrix type="matrix" values="0 0 0 0 0 0 0 0 0 0 0 0 0 0 0 0 0 0 0.25 0"/>
<feBlend mode="normal" in2="BackgroundImageFix" result="effect1_dropShadow"/>
<feBlend mode="normal" in="SourceGraphic" in2="effect1_dropShadow" result="shape"/>
</filter>
<filter id="filter1_i" x="282.84" y="0.122803" width="841.102" height="857.083" filterUnits="userSpaceOnUse" color-interpolation-filters="sRGB">
<feFlood flood-opacity="0" result="BackgroundImageFix"/>
<feBlend mode="normal" in="SourceGraphic" in2="BackgroundImageFix" result="shape"/>
<feColorMatrix in="SourceAlpha" type="matrix" values="0 0 0 0 0 0 0 0 0 0 0 0 0 0 0 0 0 0 127 0" result="hardAlpha"/>
<feOffset dx="-32"/>
<feGaussianBlur stdDeviation="40"/>
<feComposite in2="hardAlpha" operator="arithmetic" k2="-1" k3="1"/>
<feColorMatrix type="matrix" values="0 0 0 0 0 0 0 0 0 0 0 0 0 0 0 0 0 0 0.25 0"/>
<feBlend mode="normal" in2="shape" result="effect1_innerShadow"/>
</filter>
<filter id="filter2_i" x="649.704" y="3" width="146.18" height="467.923" filterUnits="userSpaceOnUse" color-interpolation-filters="sRGB">
<feFlood flood-opacity="0" result="BackgroundImageFix"/>
<feBlend mode="normal" in="SourceGraphic" in2="BackgroundImageFix" result="shape"/>
<feColorMatrix in="SourceAlpha" type="matrix" values="0 0 0 0 0 0 0 0 0 0 0 0 0 0 0 0 0 0 127 0" result="hardAlpha"/>
<feOffset dy="-7"/>
<feGaussianBlur stdDeviation="12"/>
<feComposite in2="hardAlpha" operator="arithmetic" k2="-1" k3="1"/>
<feColorMatrix type="matrix" values="0 0 0 0 0 0 0 0 0 0 0 0 0 0 0 0 0 0 0.25 0"/>
<feBlend mode="normal" in2="shape" result="effect1_innerShadow"/>
</filter>
<filter id="filter3_i" x="384.565" y="322.594" width="676.87" height="418.396" filterUnits="userSpaceOnUse" color-interpolation-filters="sRGB">
<feFlood flood-opacity="0" result="BackgroundImageFix"/>
<feBlend mode="normal" in="SourceGraphic" in2="BackgroundImageFix" result="shape"/>
<feColorMatrix in="SourceAlpha" type="matrix" values="0 0 0 0 0 0 0 0 0 0 0 0 0 0 0 0 0 0 127 0" result="hardAlpha"/>
<feOffset dy="-8"/>
<feGaussianBlur stdDeviation="11.5"/>
<feComposite in2="hardAlpha" operator="arithmetic" k2="-1" k3="1"/>
<feColorMatrix type="matrix" values="0 0 0 0 0 0 0 0 0 0 0 0 0 0 0 0 0 0 0.25 0"/>
<feBlend mode="normal" in2="shape" result="effect1_innerShadow"/>
</filter>
<clipPath id="clip0">
<rect width="369" height="416" fill="white" transform="translate(976 209.708) rotate(-31.1194)"/>
</clipPath>
</defs>
</svg>
