<svg width="835" height="552" viewBox="0 0 835 552" fill="none" xmlns="http://www.w3.org/2000/svg">
<path d="M835 537.45H0V539.445H835V537.45Z" fill="#29435C"/>
<path d="M292.65 377.206H91.89V538.866H292.65V377.206Z" fill="#29435C"/>
<path d="M198.762 491.964H164.803V537.868H198.762V491.964Z" fill="#5A7C9C"/>
<path d="M584.3 273.424C577.79 287.198 522.919 269.392 522.919 269.392L418.17 236.499L392.198 220.27L375.652 209.931L409.621 197.495L410.632 197.884L435.74 207.533L532.911 255.64C532.911 255.64 601.28 237.5 584.3 273.424Z" fill="#BC989D"/>
<path d="M321.491 131.759C321.491 131.759 308.386 137.026 306.868 151.783C305.349 166.54 305.224 249.798 305.224 249.798C305.224 249.798 339.468 230.102 357.881 229.699C376.293 229.296 419.066 198.262 419.066 198.262C419.066 198.262 338.476 125.541 321.491 131.759Z" fill="#D0CDE1"/>
<path opacity="0.1" d="M321.491 131.759C321.491 131.759 308.386 137.026 306.868 151.783C305.349 166.54 305.224 249.798 305.224 249.798C305.224 249.798 339.468 230.102 357.881 229.699C376.293 229.296 419.066 198.262 419.066 198.262C419.066 198.262 338.476 125.541 321.491 131.759Z" fill="black"/>
<g clip-path="url(#clip0)">
<path d="M620.736 227.972C632.305 230.194 640.625 237.505 640.625 237.505C640.625 237.505 630.186 241.212 618.618 238.992C607.046 236.77 598.726 229.459 598.726 229.459C598.726 229.459 601.725 228.394 606.289 227.747C610.241 227.186 615.369 226.941 620.736 227.972Z" fill="#72B07F"/>
<path d="M639.54 160.299C639.54 160.299 638.142 179.568 626.471 196.48C622.003 202.954 616.678 208.146 611.804 212.086C603.948 218.439 597.272 221.545 597.272 221.545C597.272 221.545 598.666 202.276 610.338 185.364C622.012 168.451 639.54 160.299 639.54 160.299Z" fill="#72B07F"/>
<path d="M648.304 199.907C648.304 199.907 640.801 212.699 627.025 220.385C619.549 224.557 611.761 226.369 606.2 227.153C601.514 227.813 598.411 227.744 598.411 227.744C598.411 227.744 603.175 219.622 612.083 212.431C614.354 210.597 616.894 208.826 619.692 207.266C633.471 199.577 648.304 199.907 648.304 199.907Z" fill="#72B07F"/>
<path d="M581.996 138.476C581.996 138.476 595.696 154.303 599.72 176.185C603.744 198.07 596.569 217.728 596.569 217.728C596.569 217.728 582.869 201.902 578.845 180.017C574.821 158.135 581.996 138.476 581.996 138.476Z" fill="#72B07F"/>
<path d="M572.187 192.368C589.113 204.03 597.271 221.544 597.271 221.544C597.271 221.544 589.926 221.013 580.323 217.866C574.367 215.914 567.542 212.953 561.062 208.489C544.137 196.827 535.976 179.313 535.976 179.313C535.976 179.313 555.259 180.707 572.187 192.368Z" fill="#72B07F"/>
<path d="M598.726 229.459C598.726 229.459 593.551 239.247 583.526 245.434C573.502 251.618 562.427 251.861 562.427 251.861C562.427 251.861 567.602 242.073 577.625 235.886C582.26 233.026 587.119 231.437 591.006 230.552C595.524 229.529 598.726 229.459 598.726 229.459Z" fill="#72B07F"/>
<path d="M580.183 218.288C591.069 221.844 598.411 227.744 598.411 227.744C598.411 227.744 595.518 228.917 590.877 229.965C585.403 231.205 577.499 232.271 569.048 231.029C553.438 228.739 541.874 219.447 541.874 219.447C541.874 219.447 555.62 213.869 571.234 216.162C574.405 216.627 577.409 217.38 580.183 218.288Z" fill="#72B07F"/>
<path d="M591.659 159.654C591.781 159.93 591.902 160.209 592.023 160.49C592.541 161.695 593.817 162.342 595.056 162.115C595.256 162.078 595.454 162.019 595.649 161.935C597.05 161.334 597.698 159.712 597.096 158.312C596.967 158.013 596.838 157.717 596.708 157.423C596.091 156.03 594.46 155.398 593.067 156.016C591.672 156.632 591.042 158.261 591.659 159.654Z" fill="#416548"/>
<path d="M648.543 198.726C648.028 198.714 638.016 198.554 626.648 202.724C627.439 201.703 628.198 200.669 628.921 199.622C640.88 182.291 642.411 162.892 642.47 162.075C642.541 161.099 642.09 160.16 641.284 159.605C640.479 159.05 639.44 158.963 638.552 159.375C637.809 159.721 620.206 168.043 608.242 185.375C606.602 187.751 605.16 190.166 603.889 192.567C603.936 187.758 603.592 182.584 602.613 177.263C602.096 174.45 601.395 171.586 600.53 168.75C600.086 167.293 598.543 166.47 597.084 166.917C595.626 167.361 594.804 168.902 595.249 170.359C596.053 172.995 596.704 175.653 597.183 178.26C599.829 192.649 597.411 206.193 595.637 213.263C591.463 207.285 584.384 195.484 581.738 181.095C579.091 166.698 581.514 153.146 583.289 146.081C584.769 148.195 586.614 151.04 588.498 154.479C589.229 155.815 590.906 156.306 592.245 155.575C593.582 154.843 594.073 153.167 593.341 151.831C588.779 143.501 584.444 138.459 584.262 138.248C583.622 137.508 582.637 137.163 581.675 137.34C580.713 137.516 579.916 138.189 579.581 139.108C579.277 139.939 572.195 159.729 576.308 182.092C577.286 187.414 578.806 192.372 580.56 196.85C578.518 195.058 576.311 193.313 573.932 191.674C556.585 179.724 537.171 178.198 536.353 178.139C535.377 178.068 534.436 178.52 533.881 179.324C533.326 180.129 533.238 181.167 533.651 182.054C533.998 182.797 542.329 200.385 559.673 212.336C560.721 213.058 561.799 213.755 562.902 214.428C550.792 214.568 541.491 218.274 541.014 218.468C540.107 218.836 539.463 219.656 539.321 220.623C539.179 221.59 539.56 222.561 540.322 223.173C540.818 223.572 552.657 232.963 568.824 235.335C570.984 235.652 573.106 235.821 575.163 235.883C565.406 242.386 560.382 251.739 560.165 252.149C559.708 253.014 559.743 254.056 560.257 254.888C560.772 255.72 561.688 256.217 562.667 256.196C562.881 256.191 565.268 256.124 568.78 255.479C573.164 254.674 579.302 252.968 585.155 249.357C590.623 245.982 594.71 241.643 597.413 238.186L602.56 266.173C602.835 267.671 604.274 268.663 605.773 268.388C607.273 268.112 608.265 266.674 607.989 265.176L602.843 237.189C606.599 239.46 611.963 242.065 618.276 243.277C625.031 244.573 631.374 243.987 635.758 243.182C639.269 242.537 641.525 241.752 641.727 241.68C642.65 241.353 643.329 240.562 643.514 239.602C643.699 238.642 643.361 237.655 642.626 237.01C642.277 236.703 634.254 229.746 622.821 227.133C624.721 226.344 626.644 225.433 628.55 224.37C642.817 216.409 650.542 203.427 650.864 202.878C651.359 202.034 651.37 200.992 650.893 200.139C650.415 199.285 649.521 198.748 648.543 198.726ZM612.787 188.507C620.267 177.67 630.372 170.505 636.202 166.968C634.965 173.671 631.853 185.655 624.376 196.49C620.644 201.897 615.89 206.954 610.245 211.518C606.735 214.356 603.453 216.531 600.955 218.042C602.182 211.352 605.283 199.38 612.787 188.507ZM541.25 184.4C547.959 185.636 559.953 188.744 570.798 196.215C581.648 203.691 588.82 213.794 592.359 219.618C589.486 219.093 585.648 218.226 581.362 216.821C574.461 214.56 568.219 211.523 562.808 207.794C551.962 200.322 544.791 190.226 541.25 184.4ZM548.337 221.942C553.519 220.606 561.961 219.138 571.012 220.468C573.806 220.877 576.662 221.556 579.503 222.485C584.799 224.216 589.244 226.547 592.309 228.402C591.729 228.551 591.107 228.702 590.447 228.852C585.457 229.982 577.793 231.077 569.627 229.877C560.605 228.553 552.927 224.713 548.337 221.942ZM582.253 244.664C577.339 247.696 572.096 249.204 568.253 249.952C570.643 246.853 574.34 242.843 579.254 239.809C582.893 237.563 587.113 235.883 591.794 234.818C592.307 234.702 592.802 234.599 593.277 234.507C590.895 237.601 587.198 241.612 582.253 244.664ZM619.317 237.859C613.637 236.769 608.75 234.33 605.413 232.281C605.872 232.201 606.354 232.125 606.856 232.054C611.617 231.378 616.172 231.447 620.393 232.257C626.071 233.347 630.958 235.787 634.294 237.836C630.447 238.502 625.016 238.953 619.317 237.859ZM625.857 219.553C618.635 223.583 611.069 225.281 605.993 225.997C605.339 226.09 604.716 226.167 604.131 226.232C606.337 223.409 609.662 219.651 613.997 216.152C616.321 214.275 618.75 212.626 621.216 211.25C629.174 206.809 637.598 205.179 642.927 204.582C639.622 208.803 633.813 215.114 625.857 219.553Z" fill="#416548"/>
</g>
<path d="M613.55 123.638C619.2 123.638 623.781 119.062 623.781 113.414C623.781 107.766 619.2 103.19 613.55 103.19C607.901 103.19 603.319 107.766 603.319 113.414C603.319 119.062 607.901 123.638 613.55 123.638Z" fill="#72B07F" stroke="#416548" stroke-width="3"/>
<path d="M640.422 246.481H566.133C556.86 246.481 549.342 253.992 549.342 263.257V281.596C549.342 290.861 556.86 298.372 566.133 298.372H640.422C649.695 298.372 657.213 290.861 657.213 281.596V263.257C657.213 253.992 649.695 246.481 640.422 246.481Z" fill="#D0CDE1"/>
<path d="M349.996 129.951C377.149 129.951 399.161 107.959 399.161 80.8309C399.161 53.7025 377.149 31.7106 349.996 31.7106C322.843 31.7106 300.831 53.7025 300.831 80.8309C300.831 107.959 322.843 129.951 349.996 129.951Z" fill="#203345"/>
<path d="M449.961 404.149L421.995 406.145C421.995 406.145 421.136 458.569 417.5 472.006L465.443 509.927L455.455 477.994L449.961 404.149Z" fill="#BC989D"/>
<path d="M468.156 511.015L468.156 511.015L468.156 511.015C466.169 510.311 466.441 509.927 466.441 509.927V507.931L417.577 468.751C417.102 470.507 416.579 471.66 416.002 472.006C414.21 473.08 411.647 476.595 409.096 480.661C406.127 485.426 404.225 490.776 403.521 496.344C402.816 501.913 403.326 507.567 405.015 512.92V512.92L403.017 546.849H411.008L413.005 515.914H422.993C422.993 515.914 439.973 537.868 444.967 545.851C449.961 553.834 471.935 555.83 493.909 540.861C512.476 528.213 478.986 514.853 468.156 511.015Z" fill="#203345"/>
<path d="M350.081 136.213C367.733 136.213 382.042 121.916 382.042 104.28C382.042 86.6445 367.733 72.3477 350.081 72.3477C332.429 72.3477 318.119 86.6445 318.119 104.28C318.119 121.916 332.429 136.213 350.081 136.213Z" fill="#BC989D"/>
<path d="M367.56 121.744L350.58 178.624L309.629 148.687C309.629 148.687 330.604 125.735 330.604 119.748C330.604 113.761 367.56 121.744 367.56 121.744Z" fill="#BC989D"/>
<path d="M204.255 285.898C204.255 285.898 155.314 344.774 202.258 380.699C222.914 396.506 241.057 426.418 254.898 454.962C265.757 477.47 281.43 497.321 300.812 513.112C320.193 528.904 342.808 540.25 367.06 546.35H367.06C367.06 546.35 533.861 351.759 476.929 296.875C419.997 241.991 266.181 289.89 266.181 289.89L204.255 285.898Z" fill="#203345"/>
<path d="M342.819 236.253C343.039 249.395 340.522 263.825 329.106 266.938C307.132 272.925 305.135 269.932 305.135 269.932C305.135 269.932 301.139 276.917 302.138 284.9C303.137 292.883 292.649 286.397 292.649 286.397C292.649 286.397 186.277 299.869 190.272 284.9C194.267 269.932 232.222 218.041 232.222 218.041C232.222 218.041 294.148 131.224 307.132 134.217C307.572 134.317 308.021 134.437 308.49 134.567C321.715 138.419 344.158 155.413 346.085 162.159C348.083 169.144 340.093 213.051 340.093 213.051C341.719 220.684 342.632 228.451 342.819 236.253Z" fill="#D0CDE1"/>
<path d="M356.563 32.6326C365.582 32.6326 372.894 25.3275 372.894 16.3163C372.894 7.30505 365.582 0 356.563 0C347.543 0 340.232 7.30505 340.232 16.3163C340.232 25.3275 347.543 32.6326 356.563 32.6326Z" fill="#203345"/>
<path d="M374.94 26.4211C377.457 23.255 378.708 19.268 378.45 15.2329C378.192 11.1978 376.444 7.40212 373.544 4.58148C374.001 4.87486 374.446 5.19331 374.881 5.53684C376.564 6.8683 377.968 8.51823 379.012 10.3922C380.056 12.2662 380.721 14.3275 380.967 16.4582C381.213 18.5889 381.036 20.7472 380.446 22.8095C379.857 24.8719 378.866 26.7979 377.531 28.4773C376.195 30.1567 374.542 31.5567 372.664 32.597C370.787 33.6373 368.723 34.2977 366.59 34.5402C364.457 34.7828 362.297 34.6028 360.234 34.0105C358.17 33.4183 356.244 32.4254 354.565 31.0887C354.131 30.7442 353.72 30.3826 353.331 30.0037C356.737 32.1873 360.834 33.0299 364.826 32.368C368.818 31.7061 372.422 29.5869 374.94 26.4211Z" fill="#203345"/>
<path d="M358.982 57.9901C377.569 63.0357 390.248 75.9076 387.302 86.7401C385.984 91.5871 381.751 95.1947 375.821 97.2597L370.617 90.8108L370.381 98.6367C369.558 98.7768 368.722 98.9018 367.861 98.9932L361.251 85.084L357.481 98.9437C354.384 98.6131 351.319 98.0361 348.313 97.2182C329.727 92.1726 317.047 79.3008 319.993 68.4683C322.939 57.6357 340.395 52.9445 358.982 57.9901Z" fill="#203345"/>
<path d="M499.901 358.745C486.917 366.728 478.926 309.848 478.926 309.848L385.039 252.967L363.684 231.024L350.081 217.043L386.038 213.051L386.927 213.67L409.01 229.018L491.911 298.871C491.911 298.871 512.886 350.762 499.901 358.745Z" fill="#BC989D"/>
<path opacity="0.1" d="M340.093 213.052C341.719 220.684 342.632 228.451 342.819 236.253C335.838 237.52 329.535 237.979 325.111 237.001C307.132 233.01 269.178 243.986 269.178 243.986C269.178 243.986 289.154 163.157 294.148 149.186C295.337 145.857 297.236 142.827 299.712 140.303C302.188 137.779 305.183 135.822 308.491 134.567C321.715 138.419 344.158 155.413 346.085 162.159C348.083 169.144 340.093 213.052 340.093 213.052Z" fill="black"/>
<path opacity="0.1" d="M392.03 221.035C392.03 221.035 378.866 226.403 363.684 231.024L350.081 217.043L386.038 213.051L386.927 213.67C390.143 218.25 392.03 221.035 392.03 221.035Z" fill="black"/>
<path d="M316.121 128.23C316.121 128.23 302.138 130.226 297.144 144.196C292.15 158.167 272.174 238.997 272.174 238.997C272.174 238.997 310.129 228.02 328.107 232.012C346.086 236.003 395.027 216.045 395.027 216.045C395.027 216.045 334.1 126.234 316.121 128.23Z" fill="#D0CDE1"/>
<path d="M693.007 381.005L698.351 366.769L748.222 338.297L782.063 331.179L693.007 381.005Z" fill="#29435C"/>
<path d="M509.553 381.005L504.209 366.769L454.338 338.297L420.496 331.179L509.553 381.005Z" fill="#29435C"/>
<path d="M696.57 384.563H505.99L489.96 309.825H712.6L696.57 384.563Z" fill="#29435C"/>
<path opacity="0.1" d="M696.57 384.563H505.99L489.96 309.825H712.6L696.57 384.563Z" fill="black"/>
<path d="M697.46 380.115H505.1V537.891H697.46V380.115Z" fill="#29435C"/>
<path d="M618.26 490.966H584.3V536.87H618.26V490.966Z" fill="#5A7C9C"/>
<defs>
<clipPath id="clip0">
<rect width="133.343" height="133.245" fill="white" transform="matrix(0.983561 -0.180578 0.180853 0.98351 515.922 147.803)"/>
</clipPath>
</defs>
</svg>
